solid OpenSCAD_Model
  facet normal -1.000000 -0.000000 -0.000000
    outer loop
      vertex -65.000000 5.000000 0.000000
      vertex -65.000000 5.000000 8.000000
      vertex -65.000000 61.000000 0.000000
    endloop
  endfacet
  facet normal -1.000000 0.000000 0.000000
    outer loop
      vertex -65.000000 61.000000 0.000000
      vertex -65.000000 5.000000 8.000000
      vertex -65.000000 61.000000 8.000000
    endloop
  endfacet
  facet normal 0.000000 -1.000000 0.000000
    outer loop
      vertex -65.000000 5.000000 8.000000
      vertex -65.000000 5.000000 0.000000
      vertex -25.000000 5.000000 0.000000
    endloop
  endfacet
  facet normal 0.000000 -1.000000 0.000000
    outer loop
      vertex -25.000000 5.000000 8.000000
      vertex -65.000000 5.000000 8.000000
      vertex -25.000000 5.000000 0.000000
    endloop
  endfacet
  facet normal 0.000000 -0.000000 -1.000000
    outer loop
      vertex -57.400000 53.400000 0.000000
      vertex -65.000000 61.000000 0.000000
      vertex -25.000000 61.000000 0.000000
    endloop
  endfacet
  facet normal 0.000000 -0.000000 -1.000000
    outer loop
      vertex -48.600000 53.400000 0.000000
      vertex -57.400000 53.400000 0.000000
      vertex -25.000000 61.000000 0.000000
    endloop
  endfacet
  facet normal 0.000000 -0.000000 -1.000000
    outer loop
      vertex -65.000000 5.000000 0.000000
      vertex -65.000000 61.000000 0.000000
      vertex -57.400000 12.600000 0.000000
    endloop
  endfacet
  facet normal -0.000000 0.000000 -1.000000
    outer loop
      vertex -65.000000 5.000000 0.000000
      vertex -57.400000 12.600000 0.000000
      vertex -25.000000 5.000000 0.000000
    endloop
  endfacet
  facet normal 0.000000 0.000000 -1.000000
    outer loop
      vertex -57.400000 12.600000 0.000000
      vertex -48.600000 12.600000 0.000000
      vertex -25.000000 5.000000 0.000000
    endloop
  endfacet
  facet normal 0.000000 0.000000 -1.000000
    outer loop
      vertex -41.400000 12.600000 0.000000
      vertex -48.600000 53.400000 0.000000
      vertex -41.400000 53.400000 0.000000
    endloop
  endfacet
  facet normal 0.000000 -0.000000 -1.000000
    outer loop
      vertex -41.400000 53.400000 0.000000
      vertex -48.600000 53.400000 0.000000
      vertex -25.000000 61.000000 0.000000
    endloop
  endfacet
  facet normal 0.000000 -0.000000 -1.000000
    outer loop
      vertex -32.600000 53.400000 0.000000
      vertex -41.400000 53.400000 0.000000
      vertex -25.000000 61.000000 0.000000
    endloop
  endfacet
  facet normal 0.000000 0.000000 -1.000000
    outer loop
      vertex -32.600000 53.400000 0.000000
      vertex -25.000000 5.000000 0.000000
      vertex -32.600000 12.600000 0.000000
    endloop
  endfacet
  facet normal 0.000000 0.000000 -1.000000
    outer loop
      vertex -48.600000 12.600000 0.000000
      vertex -41.400000 12.600000 0.000000
      vertex -25.000000 5.000000 0.000000
    endloop
  endfacet
  facet normal 0.000000 0.000000 -1.000000
    outer loop
      vertex -48.600000 53.400000 0.000000
      vertex -41.400000 12.600000 0.000000
      vertex -48.600000 12.600000 0.000000
    endloop
  endfacet
  facet normal 0.000000 0.000000 -1.000000
    outer loop
      vertex -41.400000 12.600000 0.000000
      vertex -32.600000 12.600000 0.000000
      vertex -25.000000 5.000000 0.000000
    endloop
  endfacet
  facet normal 0.000000 0.000000 -1.000000
    outer loop
      vertex -25.000000 5.000000 0.000000
      vertex -32.600000 53.400000 0.000000
      vertex -25.000000 61.000000 0.000000
    endloop
  endfacet
  facet normal 0.000000 0.000000 -1.000000
    outer loop
      vertex -57.400000 12.600000 0.000000
      vertex -65.000000 61.000000 0.000000
      vertex -57.400000 53.400000 0.000000
    endloop
  endfacet
  facet normal 0.000000 1.000000 0.000000
    outer loop
      vertex -65.000000 61.000000 0.000000
      vertex -65.000000 61.000000 8.000000
      vertex -25.000000 61.000000 0.000000
    endloop
  endfacet
  facet normal 0.000000 1.000000 0.000000
    outer loop
      vertex -25.000000 61.000000 0.000000
      vertex -65.000000 61.000000 8.000000
      vertex -25.000000 61.000000 8.000000
    endloop
  endfacet
  facet normal 0.000000 -0.000000 1.000000
    outer loop
      vertex -57.400000 12.600000 8.000000
      vertex -65.000000 5.000000 8.000000
      vertex -25.000000 5.000000 8.000000
    endloop
  endfacet
  facet normal 0.000000 -0.000000 1.000000
    outer loop
      vertex -48.600000 12.600000 8.000000
      vertex -57.400000 12.600000 8.000000
      vertex -25.000000 5.000000 8.000000
    endloop
  endfacet
  facet normal 0.000000 -0.000000 1.000000
    outer loop
      vertex -65.000000 61.000000 8.000000
      vertex -65.000000 5.000000 8.000000
      vertex -57.400000 12.600000 8.000000
    endloop
  endfacet
  facet normal 0.000000 0.000000 1.000000
    outer loop
      vertex -25.000000 61.000000 8.000000
      vertex -65.000000 61.000000 8.000000
      vertex -57.400000 53.400000 8.000000
    endloop
  endfacet
  facet normal 0.000000 0.000000 1.000000
    outer loop
      vertex -25.000000 61.000000 8.000000
      vertex -57.400000 53.400000 8.000000
      vertex -48.600000 53.400000 8.000000
    endloop
  endfacet
  facet normal 0.000000 -0.000000 1.000000
    outer loop
      vertex -41.400000 12.600000 8.000000
      vertex -48.600000 12.600000 8.000000
      vertex -25.000000 5.000000 8.000000
    endloop
  endfacet
  facet normal 0.000000 -0.000000 1.000000
    outer loop
      vertex -32.600000 12.600000 8.000000
      vertex -41.400000 12.600000 8.000000
      vertex -25.000000 5.000000 8.000000
    endloop
  endfacet
  facet normal 0.000000 -0.000000 1.000000
    outer loop
      vertex -48.600000 53.400000 8.000000
      vertex -48.600000 12.600000 8.000000
      vertex -41.400000 12.600000 8.000000
    endloop
  endfacet
  facet normal 0.000000 0.000000 1.000000
    outer loop
      vertex -25.000000 61.000000 8.000000
      vertex -48.600000 53.400000 8.000000
      vertex -41.400000 53.400000 8.000000
    endloop
  endfacet
  facet normal 0.000000 0.000000 1.000000
    outer loop
      vertex -25.000000 61.000000 8.000000
      vertex -32.600000 53.400000 8.000000
      vertex -25.000000 5.000000 8.000000
    endloop
  endfacet
  facet normal 0.000000 0.000000 1.000000
    outer loop
      vertex -25.000000 61.000000 8.000000
      vertex -41.400000 53.400000 8.000000
      vertex -32.600000 53.400000 8.000000
    endloop
  endfacet
  facet normal 0.000000 -0.000000 1.000000
    outer loop
      vertex -32.600000 53.400000 8.000000
      vertex -32.600000 12.600000 8.000000
      vertex -25.000000 5.000000 8.000000
    endloop
  endfacet
  facet normal 0.000000 0.000000 1.000000
    outer loop
      vertex -41.400000 12.600000 8.000000
      vertex -41.400000 53.400000 8.000000
      vertex -48.600000 53.400000 8.000000
    endloop
  endfacet
  facet normal 0.000000 0.000000 1.000000
    outer loop
      vertex -57.400000 12.600000 8.000000
      vertex -57.400000 53.400000 8.000000
      vertex -65.000000 61.000000 8.000000
    endloop
  endfacet
  facet normal 1.000000 0.000000 -0.000000
    outer loop
      vertex -25.000000 5.000000 8.000000
      vertex -25.000000 5.000000 0.000000
      vertex -25.000000 61.000000 0.000000
    endloop
  endfacet
  facet normal 1.000000 0.000000 0.000000
    outer loop
      vertex -25.000000 61.000000 8.000000
      vertex -25.000000 5.000000 8.000000
      vertex -25.000000 61.000000 0.000000
    endloop
  endfacet
  facet normal 1.000000 0.000000 0.000000
    outer loop
      vertex -57.400000 53.400000 0.000000
      vertex -57.400000 53.400000 8.000000
      vertex -57.400000 12.600000 8.000000
    endloop
  endfacet
  facet normal 1.000000 0.000000 0.000000
    outer loop
      vertex -57.400000 12.600000 0.000000
      vertex -57.400000 53.400000 0.000000
      vertex -57.400000 12.600000 8.000000
    endloop
  endfacet
  facet normal 0.000000 -1.000000 0.000000
    outer loop
      vertex -48.600000 53.400000 0.000000
      vertex -48.600000 53.400000 8.000000
      vertex -57.400000 53.400000 8.000000
    endloop
  endfacet
  facet normal -0.000000 -1.000000 -0.000000
    outer loop
      vertex -57.400000 53.400000 0.000000
      vertex -48.600000 53.400000 0.000000
      vertex -57.400000 53.400000 8.000000
    endloop
  endfacet
  facet normal -1.000000 0.000000 0.000000
    outer loop
      vertex -48.600000 53.400000 8.000000
      vertex -48.600000 53.400000 0.000000
      vertex -48.600000 12.600000 8.000000
    endloop
  endfacet
  facet normal -1.000000 0.000000 0.000000
    outer loop
      vertex -48.600000 12.600000 8.000000
      vertex -48.600000 53.400000 0.000000
      vertex -48.600000 12.600000 0.000000
    endloop
  endfacet
  facet normal 0.000000 1.000000 0.000000
    outer loop
      vertex -48.600000 12.600000 8.000000
      vertex -48.600000 12.600000 0.000000
      vertex -57.400000 12.600000 8.000000
    endloop
  endfacet
  facet normal 0.000000 1.000000 -0.000000
    outer loop
      vertex -57.400000 12.600000 8.000000
      vertex -48.600000 12.600000 0.000000
      vertex -57.400000 12.600000 0.000000
    endloop
  endfacet
  facet normal 1.000000 0.000000 0.000000
    outer loop
      vertex -41.400000 53.400000 0.000000
      vertex -41.400000 53.400000 8.000000
      vertex -41.400000 12.600000 8.000000
    endloop
  endfacet
  facet normal 1.000000 0.000000 0.000000
    outer loop
      vertex -41.400000 12.600000 0.000000
      vertex -41.400000 53.400000 0.000000
      vertex -41.400000 12.600000 8.000000
    endloop
  endfacet
  facet normal 0.000000 -1.000000 0.000000
    outer loop
      vertex -32.600000 53.400000 0.000000
      vertex -32.600000 53.400000 8.000000
      vertex -41.400000 53.400000 8.000000
    endloop
  endfacet
  facet normal -0.000000 -1.000000 -0.000000
    outer loop
      vertex -41.400000 53.400000 0.000000
      vertex -32.600000 53.400000 0.000000
      vertex -41.400000 53.400000 8.000000
    endloop
  endfacet
  facet normal -1.000000 0.000000 0.000000
    outer loop
      vertex -32.600000 53.400000 8.000000
      vertex -32.600000 53.400000 0.000000
      vertex -32.600000 12.600000 8.000000
    endloop
  endfacet
  facet normal -1.000000 0.000000 0.000000
    outer loop
      vertex -32.600000 12.600000 8.000000
      vertex -32.600000 53.400000 0.000000
      vertex -32.600000 12.600000 0.000000
    endloop
  endfacet
  facet normal 0.000000 1.000000 0.000000
    outer loop
      vertex -32.600000 12.600000 8.000000
      vertex -32.600000 12.600000 0.000000
      vertex -41.400000 12.600000 8.000000
    endloop
  endfacet
  facet normal 0.000000 1.000000 -0.000000
    outer loop
      vertex -41.400000 12.600000 8.000000
      vertex -32.600000 12.600000 0.000000
      vertex -41.400000 12.600000 0.000000
    endloop
  endfacet
  facet normal -1.000000 -0.000000 -0.000000
    outer loop
      vertex -20.000000 5.000000 0.000000
      vertex -20.000000 5.000000 8.000000
      vertex -20.000000 36.600000 0.000000
    endloop
  endfacet
  facet normal -1.000000 0.000000 0.000000
    outer loop
      vertex -20.000000 36.600000 0.000000
      vertex -20.000000 5.000000 8.000000
      vertex -20.000000 36.600000 8.000000
    endloop
  endfacet
  facet normal 0.000000 -1.000000 0.000000
    outer loop
      vertex -20.000000 5.000000 8.000000
      vertex -20.000000 5.000000 0.000000
      vertex 20.000000 5.000000 0.000000
    endloop
  endfacet
  facet normal 0.000000 -1.000000 0.000000
    outer loop
      vertex 20.000000 5.000000 8.000000
      vertex -20.000000 5.000000 8.000000
      vertex 20.000000 5.000000 0.000000
    endloop
  endfacet
  facet normal 0.000000 0.000000 -1.000000
    outer loop
      vertex -3.600000 36.600000 0.000000
      vertex 3.600000 12.600000 0.000000
      vertex -3.600000 12.600000 0.000000
    endloop
  endfacet
  facet normal 0.000000 0.000000 -1.000000
    outer loop
      vertex -3.600000 53.400000 0.000000
      vertex 3.600000 53.400000 0.000000
      vertex -3.600000 45.400000 0.000000
    endloop
  endfacet
  facet normal 0.000000 -0.000000 -1.000000
    outer loop
      vertex -20.000000 5.000000 0.000000
      vertex -20.000000 36.600000 0.000000
      vertex -12.400000 12.600000 0.000000
    endloop
  endfacet
  facet normal -0.000000 0.000000 -1.000000
    outer loop
      vertex -20.000000 5.000000 0.000000
      vertex -12.400000 12.600000 0.000000
      vertex 20.000000 5.000000 0.000000
    endloop
  endfacet
  facet normal 0.000000 0.000000 -1.000000
    outer loop
      vertex 12.400000 12.600000 0.000000
      vertex 20.000000 5.000000 0.000000
      vertex 3.600000 12.600000 0.000000
    endloop
  endfacet
  facet normal 0.000000 0.000000 -1.000000
    outer loop
      vertex -12.400000 12.600000 0.000000
      vertex -3.600000 12.600000 0.000000
      vertex 20.000000 5.000000 0.000000
    endloop
  endfacet
  facet normal 0.000000 0.000000 -1.000000
    outer loop
      vertex 3.600000 12.600000 0.000000
      vertex -3.600000 36.600000 0.000000
      vertex 3.600000 36.600000 0.000000
    endloop
  endfacet
  facet normal 0.000000 0.000000 -1.000000
    outer loop
      vertex 3.600000 45.400000 0.000000
      vertex -3.600000 45.400000 0.000000
      vertex 3.600000 53.400000 0.000000
    endloop
  endfacet
  facet normal 0.000000 0.000000 -1.000000
    outer loop
      vertex 12.400000 53.400000 0.000000
      vertex 20.000000 5.000000 0.000000
      vertex 12.400000 12.600000 0.000000
    endloop
  endfacet
  facet normal 0.000000 0.000000 -1.000000
    outer loop
      vertex -3.600000 12.600000 0.000000
      vertex 3.600000 12.600000 0.000000
      vertex 20.000000 5.000000 0.000000
    endloop
  endfacet
  facet normal -0.000000 0.000000 -1.000000
    outer loop
      vertex -20.000000 45.400000 0.000000
      vertex -12.400000 53.400000 0.000000
      vertex -12.400000 45.400000 0.000000
    endloop
  endfacet
  facet normal -0.000000 -0.000000 -1.000000
    outer loop
      vertex 3.600000 53.400000 0.000000
      vertex -20.000000 61.000000 0.000000
      vertex 12.400000 53.400000 0.000000
    endloop
  endfacet
  facet normal -0.000000 -0.000000 -1.000000
    outer loop
      vertex -3.600000 53.400000 0.000000
      vertex -20.000000 61.000000 0.000000
      vertex 3.600000 53.400000 0.000000
    endloop
  endfacet
  facet normal 0.000000 0.000000 -1.000000
    outer loop
      vertex -12.400000 53.400000 0.000000
      vertex -20.000000 45.400000 0.000000
      vertex -20.000000 61.000000 0.000000
    endloop
  endfacet
  facet normal -0.000000 -0.000000 -1.000000
    outer loop
      vertex -12.400000 53.400000 0.000000
      vertex -20.000000 61.000000 0.000000
      vertex -3.600000 53.400000 0.000000
    endloop
  endfacet
  facet normal 0.000000 -0.000000 -1.000000
    outer loop
      vertex 12.400000 53.400000 0.000000
      vertex -20.000000 61.000000 0.000000
      vertex 20.000000 61.000000 0.000000
    endloop
  endfacet
  facet normal -0.000000 0.000000 -1.000000
    outer loop
      vertex 12.400000 53.400000 0.000000
      vertex 20.000000 61.000000 0.000000
      vertex 20.000000 5.000000 0.000000
    endloop
  endfacet
  facet normal 0.000000 0.000000 -1.000000
    outer loop
      vertex -12.400000 12.600000 0.000000
      vertex -20.000000 36.600000 0.000000
      vertex -12.400000 36.600000 0.000000
    endloop
  endfacet
  facet normal 0.000000 1.000000 0.000000
    outer loop
      vertex -12.400000 36.600000 8.000000
      vertex -12.400000 36.600000 0.000000
      vertex -20.000000 36.600000 8.000000
    endloop
  endfacet
  facet normal 0.000000 1.000000 -0.000000
    outer loop
      vertex -20.000000 36.600000 8.000000
      vertex -12.400000 36.600000 0.000000
      vertex -20.000000 36.600000 0.000000
    endloop
  endfacet
  facet normal 0.000000 -0.000000 1.000000
    outer loop
      vertex 3.600000 12.600000 8.000000
      vertex -20.000000 5.000000 8.000000
      vertex 20.000000 5.000000 8.000000
    endloop
  endfacet
  facet normal -0.000000 0.000000 1.000000
    outer loop
      vertex 3.600000 45.400000 8.000000
      vertex 3.600000 53.400000 8.000000
      vertex -3.600000 45.400000 8.000000
    endloop
  endfacet
  facet normal 0.000000 0.000000 1.000000
    outer loop
      vertex -12.400000 12.600000 8.000000
      vertex -12.400000 36.600000 8.000000
      vertex -20.000000 36.600000 8.000000
    endloop
  endfacet
  facet normal 0.000000 0.000000 1.000000
    outer loop
      vertex -20.000000 61.000000 8.000000
      vertex -12.400000 53.400000 8.000000
      vertex 20.000000 61.000000 8.000000
    endloop
  endfacet
  facet normal 0.000000 -0.000000 1.000000
    outer loop
      vertex -20.000000 61.000000 8.000000
      vertex -20.000000 45.400000 8.000000
      vertex -12.400000 53.400000 8.000000
    endloop
  endfacet
  facet normal 0.000000 0.000000 1.000000
    outer loop
      vertex -12.400000 53.400000 8.000000
      vertex -3.600000 53.400000 8.000000
      vertex 20.000000 61.000000 8.000000
    endloop
  endfacet
  facet normal 0.000000 -0.000000 1.000000
    outer loop
      vertex 12.400000 12.600000 8.000000
      vertex 3.600000 12.600000 8.000000
      vertex 20.000000 5.000000 8.000000
    endloop
  endfacet
  facet normal 0.000000 0.000000 1.000000
    outer loop
      vertex 3.600000 53.400000 8.000000
      vertex 12.400000 53.400000 8.000000
      vertex 20.000000 61.000000 8.000000
    endloop
  endfacet
  facet normal 0.000000 -0.000000 1.000000
    outer loop
      vertex -3.600000 53.400000 8.000000
      vertex -3.600000 45.400000 8.000000
      vertex 3.600000 53.400000 8.000000
    endloop
  endfacet
  facet normal 0.000000 0.000000 1.000000
    outer loop
      vertex 20.000000 61.000000 8.000000
      vertex 12.400000 53.400000 8.000000
      vertex 20.000000 5.000000 8.000000
    endloop
  endfacet
  facet normal 0.000000 -0.000000 1.000000
    outer loop
      vertex -3.600000 36.600000 8.000000
      vertex -3.600000 12.600000 8.000000
      vertex 3.600000 12.600000 8.000000
    endloop
  endfacet
  facet normal 0.000000 -0.000000 1.000000
    outer loop
      vertex -3.600000 12.600000 8.000000
      vertex -20.000000 5.000000 8.000000
      vertex 3.600000 12.600000 8.000000
    endloop
  endfacet
  facet normal 0.000000 0.000000 1.000000
    outer loop
      vertex 3.600000 36.600000 8.000000
      vertex -3.600000 36.600000 8.000000
      vertex 3.600000 12.600000 8.000000
    endloop
  endfacet
  facet normal 0.000000 -0.000000 1.000000
    outer loop
      vertex -12.400000 12.600000 8.000000
      vertex -20.000000 5.000000 8.000000
      vertex -3.600000 12.600000 8.000000
    endloop
  endfacet
  facet normal 0.000000 -0.000000 1.000000
    outer loop
      vertex -20.000000 36.600000 8.000000
      vertex -20.000000 5.000000 8.000000
      vertex -12.400000 12.600000 8.000000
    endloop
  endfacet
  facet normal 0.000000 0.000000 1.000000
    outer loop
      vertex -3.600000 53.400000 8.000000
      vertex 3.600000 53.400000 8.000000
      vertex 20.000000 61.000000 8.000000
    endloop
  endfacet
  facet normal 0.000000 -0.000000 1.000000
    outer loop
      vertex 12.400000 53.400000 8.000000
      vertex 12.400000 12.600000 8.000000
      vertex 20.000000 5.000000 8.000000
    endloop
  endfacet
  facet normal -0.000000 0.000000 1.000000
    outer loop
      vertex -12.400000 45.400000 8.000000
      vertex -12.400000 53.400000 8.000000
      vertex -20.000000 45.400000 8.000000
    endloop
  endfacet
  facet normal 1.000000 0.000000 -0.000000
    outer loop
      vertex 20.000000 5.000000 8.000000
      vertex 20.000000 5.000000 0.000000
      vertex 20.000000 61.000000 0.000000
    endloop
  endfacet
  facet normal 1.000000 0.000000 0.000000
    outer loop
      vertex 20.000000 61.000000 8.000000
      vertex 20.000000 5.000000 8.000000
      vertex 20.000000 61.000000 0.000000
    endloop
  endfacet
  facet normal 0.000000 1.000000 0.000000
    outer loop
      vertex -20.000000 61.000000 0.000000
      vertex -20.000000 61.000000 8.000000
      vertex 20.000000 61.000000 0.000000
    endloop
  endfacet
  facet normal 0.000000 1.000000 0.000000
    outer loop
      vertex 20.000000 61.000000 0.000000
      vertex -20.000000 61.000000 8.000000
      vertex 20.000000 61.000000 8.000000
    endloop
  endfacet
  facet normal -1.000000 -0.000000 -0.000000
    outer loop
      vertex -20.000000 45.400000 0.000000
      vertex -20.000000 45.400000 8.000000
      vertex -20.000000 61.000000 0.000000
    endloop
  endfacet
  facet normal -1.000000 0.000000 0.000000
    outer loop
      vertex -20.000000 61.000000 0.000000
      vertex -20.000000 45.400000 8.000000
      vertex -20.000000 61.000000 8.000000
    endloop
  endfacet
  facet normal 0.000000 -1.000000 0.000000
    outer loop
      vertex -12.400000 45.400000 0.000000
      vertex -12.400000 45.400000 8.000000
      vertex -20.000000 45.400000 8.000000
    endloop
  endfacet
  facet normal -0.000000 -1.000000 -0.000000
    outer loop
      vertex -20.000000 45.400000 0.000000
      vertex -12.400000 45.400000 0.000000
      vertex -20.000000 45.400000 8.000000
    endloop
  endfacet
  facet normal 1.000000 0.000000 0.000000
    outer loop
      vertex -12.400000 53.400000 0.000000
      vertex -12.400000 53.400000 8.000000
      vertex -12.400000 45.400000 8.000000
    endloop
  endfacet
  facet normal 1.000000 0.000000 0.000000
    outer loop
      vertex -12.400000 45.400000 0.000000
      vertex -12.400000 53.400000 0.000000
      vertex -12.400000 45.400000 8.000000
    endloop
  endfacet
  facet normal 0.000000 -1.000000 0.000000
    outer loop
      vertex -3.600000 53.400000 0.000000
      vertex -3.600000 53.400000 8.000000
      vertex -12.400000 53.400000 8.000000
    endloop
  endfacet
  facet normal -0.000000 -1.000000 -0.000000
    outer loop
      vertex -12.400000 53.400000 0.000000
      vertex -3.600000 53.400000 0.000000
      vertex -12.400000 53.400000 8.000000
    endloop
  endfacet
  facet normal -1.000000 0.000000 0.000000
    outer loop
      vertex -3.600000 53.400000 8.000000
      vertex -3.600000 53.400000 0.000000
      vertex -3.600000 45.400000 8.000000
    endloop
  endfacet
  facet normal -1.000000 0.000000 0.000000
    outer loop
      vertex -3.600000 45.400000 8.000000
      vertex -3.600000 53.400000 0.000000
      vertex -3.600000 45.400000 0.000000
    endloop
  endfacet
  facet normal 0.000000 -1.000000 0.000000
    outer loop
      vertex 3.600000 45.400000 0.000000
      vertex 3.600000 45.400000 8.000000
      vertex -3.600000 45.400000 8.000000
    endloop
  endfacet
  facet normal -0.000000 -1.000000 -0.000000
    outer loop
      vertex -3.600000 45.400000 0.000000
      vertex 3.600000 45.400000 0.000000
      vertex -3.600000 45.400000 8.000000
    endloop
  endfacet
  facet normal 1.000000 0.000000 0.000000
    outer loop
      vertex 3.600000 53.400000 0.000000
      vertex 3.600000 53.400000 8.000000
      vertex 3.600000 45.400000 8.000000
    endloop
  endfacet
  facet normal 1.000000 0.000000 0.000000
    outer loop
      vertex 3.600000 45.400000 0.000000
      vertex 3.600000 53.400000 0.000000
      vertex 3.600000 45.400000 8.000000
    endloop
  endfacet
  facet normal 0.000000 -1.000000 0.000000
    outer loop
      vertex 12.400000 53.400000 0.000000
      vertex 12.400000 53.400000 8.000000
      vertex 3.600000 53.400000 8.000000
    endloop
  endfacet
  facet normal -0.000000 -1.000000 -0.000000
    outer loop
      vertex 3.600000 53.400000 0.000000
      vertex 12.400000 53.400000 0.000000
      vertex 3.600000 53.400000 8.000000
    endloop
  endfacet
  facet normal -1.000000 0.000000 0.000000
    outer loop
      vertex 12.400000 53.400000 8.000000
      vertex 12.400000 53.400000 0.000000
      vertex 12.400000 12.600000 8.000000
    endloop
  endfacet
  facet normal -1.000000 0.000000 0.000000
    outer loop
      vertex 12.400000 12.600000 8.000000
      vertex 12.400000 53.400000 0.000000
      vertex 12.400000 12.600000 0.000000
    endloop
  endfacet
  facet normal 0.000000 1.000000 0.000000
    outer loop
      vertex 12.400000 12.600000 8.000000
      vertex 12.400000 12.600000 0.000000
      vertex 3.600000 12.600000 8.000000
    endloop
  endfacet
  facet normal 0.000000 1.000000 -0.000000
    outer loop
      vertex 3.600000 12.600000 8.000000
      vertex 12.400000 12.600000 0.000000
      vertex 3.600000 12.600000 0.000000
    endloop
  endfacet
  facet normal 1.000000 0.000000 0.000000
    outer loop
      vertex 3.600000 36.600000 0.000000
      vertex 3.600000 36.600000 8.000000
      vertex 3.600000 12.600000 8.000000
    endloop
  endfacet
  facet normal 1.000000 0.000000 0.000000
    outer loop
      vertex 3.600000 12.600000 0.000000
      vertex 3.600000 36.600000 0.000000
      vertex 3.600000 12.600000 8.000000
    endloop
  endfacet
  facet normal 0.000000 1.000000 0.000000
    outer loop
      vertex 3.600000 36.600000 8.000000
      vertex 3.600000 36.600000 0.000000
      vertex -3.600000 36.600000 8.000000
    endloop
  endfacet
  facet normal 0.000000 1.000000 -0.000000
    outer loop
      vertex -3.600000 36.600000 8.000000
      vertex 3.600000 36.600000 0.000000
      vertex -3.600000 36.600000 0.000000
    endloop
  endfacet
  facet normal -1.000000 0.000000 0.000000
    outer loop
      vertex -3.600000 36.600000 8.000000
      vertex -3.600000 36.600000 0.000000
      vertex -3.600000 12.600000 8.000000
    endloop
  endfacet
  facet normal -1.000000 0.000000 0.000000
    outer loop
      vertex -3.600000 12.600000 8.000000
      vertex -3.600000 36.600000 0.000000
      vertex -3.600000 12.600000 0.000000
    endloop
  endfacet
  facet normal 0.000000 1.000000 0.000000
    outer loop
      vertex -3.600000 12.600000 8.000000
      vertex -3.600000 12.600000 0.000000
      vertex -12.400000 12.600000 8.000000
    endloop
  endfacet
  facet normal 0.000000 1.000000 -0.000000
    outer loop
      vertex -12.400000 12.600000 8.000000
      vertex -3.600000 12.600000 0.000000
      vertex -12.400000 12.600000 0.000000
    endloop
  endfacet
  facet normal 1.000000 0.000000 0.000000
    outer loop
      vertex -12.400000 36.600000 0.000000
      vertex -12.400000 36.600000 8.000000
      vertex -12.400000 12.600000 8.000000
    endloop
  endfacet
  facet normal 1.000000 0.000000 0.000000
    outer loop
      vertex -12.400000 12.600000 0.000000
      vertex -12.400000 36.600000 0.000000
      vertex -12.400000 12.600000 8.000000
    endloop
  endfacet
  facet normal -1.000000 -0.000000 -0.000000
    outer loop
      vertex 25.000000 5.000000 0.000000
      vertex 25.000000 5.000000 8.000000
      vertex 25.000000 36.600000 0.000000
    endloop
  endfacet
  facet normal -1.000000 0.000000 0.000000
    outer loop
      vertex 25.000000 36.600000 0.000000
      vertex 25.000000 5.000000 8.000000
      vertex 25.000000 36.600000 8.000000
    endloop
  endfacet
  facet normal 0.000000 -1.000000 0.000000
    outer loop
      vertex 25.000000 5.000000 8.000000
      vertex 25.000000 5.000000 0.000000
      vertex 65.000000 5.000000 0.000000
    endloop
  endfacet
  facet normal 0.000000 -1.000000 0.000000
    outer loop
      vertex 65.000000 5.000000 8.000000
      vertex 25.000000 5.000000 8.000000
      vertex 65.000000 5.000000 0.000000
    endloop
  endfacet
  facet normal 0.000000 0.000000 -1.000000
    outer loop
      vertex 41.400000 53.400000 0.000000
      vertex 48.600000 53.400000 0.000000
      vertex 41.400000 45.400000 0.000000
    endloop
  endfacet
  facet normal 0.000000 -0.000000 -1.000000
    outer loop
      vertex 25.000000 5.000000 0.000000
      vertex 25.000000 36.600000 0.000000
      vertex 32.600000 12.600000 0.000000
    endloop
  endfacet
  facet normal -0.000000 0.000000 -1.000000
    outer loop
      vertex 25.000000 5.000000 0.000000
      vertex 32.600000 12.600000 0.000000
      vertex 65.000000 5.000000 0.000000
    endloop
  endfacet
  facet normal 0.000000 0.000000 -1.000000
    outer loop
      vertex 48.600000 12.600000 0.000000
      vertex 41.400000 20.600000 0.000000
      vertex 48.600000 20.600000 0.000000
    endloop
  endfacet
  facet normal 0.000000 0.000000 -1.000000
    outer loop
      vertex 32.600000 12.600000 0.000000
      vertex 41.400000 12.600000 0.000000
      vertex 65.000000 5.000000 0.000000
    endloop
  endfacet
  facet normal 0.000000 0.000000 -1.000000
    outer loop
      vertex 48.600000 45.400000 0.000000
      vertex 41.400000 45.400000 0.000000
      vertex 48.600000 53.400000 0.000000
    endloop
  endfacet
  facet normal 0.000000 0.000000 -1.000000
    outer loop
      vertex 57.400000 12.600000 0.000000
      vertex 65.000000 5.000000 0.000000
      vertex 48.600000 12.600000 0.000000
    endloop
  endfacet
  facet normal -0.000000 -0.000000 -1.000000
    outer loop
      vertex 41.400000 12.600000 0.000000
      vertex 41.400000 20.600000 0.000000
      vertex 48.600000 12.600000 0.000000
    endloop
  endfacet
  facet normal 0.000000 0.000000 -1.000000
    outer loop
      vertex 41.400000 12.600000 0.000000
      vertex 48.600000 12.600000 0.000000
      vertex 65.000000 5.000000 0.000000
    endloop
  endfacet
  facet normal 0.000000 0.000000 -1.000000
    outer loop
      vertex 65.000000 5.000000 0.000000
      vertex 57.400000 12.600000 0.000000
      vertex 57.400000 53.400000 0.000000
    endloop
  endfacet
  facet normal -0.000000 0.000000 -1.000000
    outer loop
      vertex 25.000000 45.400000 0.000000
      vertex 32.600000 53.400000 0.000000
      vertex 32.600000 45.400000 0.000000
    endloop
  endfacet
  facet normal -0.000000 -0.000000 -1.000000
    outer loop
      vertex 48.600000 53.400000 0.000000
      vertex 25.000000 61.000000 0.000000
      vertex 57.400000 53.400000 0.000000
    endloop
  endfacet
  facet normal -0.000000 -0.000000 -1.000000
    outer loop
      vertex 41.400000 53.400000 0.000000
      vertex 25.000000 61.000000 0.000000
      vertex 48.600000 53.400000 0.000000
    endloop
  endfacet
  facet normal 0.000000 0.000000 -1.000000
    outer loop
      vertex 32.600000 53.400000 0.000000
      vertex 25.000000 45.400000 0.000000
      vertex 25.000000 61.000000 0.000000
    endloop
  endfacet
  facet normal -0.000000 -0.000000 -1.000000
    outer loop
      vertex 32.600000 53.400000 0.000000
      vertex 25.000000 61.000000 0.000000
      vertex 41.400000 53.400000 0.000000
    endloop
  endfacet
  facet normal 0.000000 -0.000000 -1.000000
    outer loop
      vertex 57.400000 53.400000 0.000000
      vertex 25.000000 61.000000 0.000000
      vertex 65.000000 61.000000 0.000000
    endloop
  endfacet
  facet normal -0.000000 0.000000 -1.000000
    outer loop
      vertex 57.400000 53.400000 0.000000
      vertex 65.000000 61.000000 0.000000
      vertex 65.000000 5.000000 0.000000
    endloop
  endfacet
  facet normal 0.000000 0.000000 -1.000000
    outer loop
      vertex 32.600000 12.600000 0.000000
      vertex 25.000000 36.600000 0.000000
      vertex 32.600000 36.600000 0.000000
    endloop
  endfacet
  facet normal 0.000000 1.000000 0.000000
    outer loop
      vertex 32.600000 36.600000 8.000000
      vertex 32.600000 36.600000 0.000000
      vertex 25.000000 36.600000 8.000000
    endloop
  endfacet
  facet normal 0.000000 1.000000 -0.000000
    outer loop
      vertex 25.000000 36.600000 8.000000
      vertex 32.600000 36.600000 0.000000
      vertex 25.000000 36.600000 0.000000
    endloop
  endfacet
  facet normal 0.000000 -0.000000 1.000000
    outer loop
      vertex 48.600000 12.600000 8.000000
      vertex 25.000000 5.000000 8.000000
      vertex 65.000000 5.000000 8.000000
    endloop
  endfacet
  facet normal -0.000000 0.000000 1.000000
    outer loop
      vertex 48.600000 45.400000 8.000000
      vertex 48.600000 53.400000 8.000000
      vertex 41.400000 45.400000 8.000000
    endloop
  endfacet
  facet normal 0.000000 0.000000 1.000000
    outer loop
      vertex 48.600000 12.600000 8.000000
      vertex 48.600000 20.600000 8.000000
      vertex 41.400000 20.600000 8.000000
    endloop
  endfacet
  facet normal 0.000000 -0.000000 1.000000
    outer loop
      vertex 57.400000 53.400000 8.000000
      vertex 57.400000 12.600000 8.000000
      vertex 65.000000 5.000000 8.000000
    endloop
  endfacet
  facet normal 0.000000 0.000000 1.000000
    outer loop
      vertex 25.000000 61.000000 8.000000
      vertex 32.600000 53.400000 8.000000
      vertex 65.000000 61.000000 8.000000
    endloop
  endfacet
  facet normal 0.000000 -0.000000 1.000000
    outer loop
      vertex 25.000000 61.000000 8.000000
      vertex 25.000000 45.400000 8.000000
      vertex 32.600000 53.400000 8.000000
    endloop
  endfacet
  facet normal 0.000000 0.000000 1.000000
    outer loop
      vertex 32.600000 53.400000 8.000000
      vertex 41.400000 53.400000 8.000000
      vertex 65.000000 61.000000 8.000000
    endloop
  endfacet
  facet normal 0.000000 -0.000000 1.000000
    outer loop
      vertex 57.400000 12.600000 8.000000
      vertex 48.600000 12.600000 8.000000
      vertex 65.000000 5.000000 8.000000
    endloop
  endfacet
  facet normal 0.000000 0.000000 1.000000
    outer loop
      vertex 48.600000 53.400000 8.000000
      vertex 57.400000 53.400000 8.000000
      vertex 65.000000 61.000000 8.000000
    endloop
  endfacet
  facet normal 0.000000 -0.000000 1.000000
    outer loop
      vertex 41.400000 53.400000 8.000000
      vertex 41.400000 45.400000 8.000000
      vertex 48.600000 53.400000 8.000000
    endloop
  endfacet
  facet normal 0.000000 0.000000 1.000000
    outer loop
      vertex 65.000000 61.000000 8.000000
      vertex 57.400000 53.400000 8.000000
      vertex 65.000000 5.000000 8.000000
    endloop
  endfacet
  facet normal 0.000000 -0.000000 1.000000
    outer loop
      vertex 41.400000 20.600000 8.000000
      vertex 41.400000 12.600000 8.000000
      vertex 48.600000 12.600000 8.000000
    endloop
  endfacet
  facet normal 0.000000 -0.000000 1.000000
    outer loop
      vertex 41.400000 12.600000 8.000000
      vertex 25.000000 5.000000 8.000000
      vertex 48.600000 12.600000 8.000000
    endloop
  endfacet
  facet normal 0.000000 -0.000000 1.000000
    outer loop
      vertex 32.600000 12.600000 8.000000
      vertex 25.000000 5.000000 8.000000
      vertex 41.400000 12.600000 8.000000
    endloop
  endfacet
  facet normal 0.000000 -0.000000 1.000000
    outer loop
      vertex 25.000000 36.600000 8.000000
      vertex 25.000000 5.000000 8.000000
      vertex 32.600000 12.600000 8.000000
    endloop
  endfacet
  facet normal 0.000000 0.000000 1.000000
    outer loop
      vertex 41.400000 53.400000 8.000000
      vertex 48.600000 53.400000 8.000000
      vertex 65.000000 61.000000 8.000000
    endloop
  endfacet
  facet normal 0.000000 0.000000 1.000000
    outer loop
      vertex 32.600000 12.600000 8.000000
      vertex 32.600000 36.600000 8.000000
      vertex 25.000000 36.600000 8.000000
    endloop
  endfacet
  facet normal -0.000000 0.000000 1.000000
    outer loop
      vertex 32.600000 45.400000 8.000000
      vertex 32.600000 53.400000 8.000000
      vertex 25.000000 45.400000 8.000000
    endloop
  endfacet
  facet normal 1.000000 0.000000 -0.000000
    outer loop
      vertex 65.000000 5.000000 8.000000
      vertex 65.000000 5.000000 0.000000
      vertex 65.000000 61.000000 0.000000
    endloop
  endfacet
  facet normal 1.000000 0.000000 0.000000
    outer loop
      vertex 65.000000 61.000000 8.000000
      vertex 65.000000 5.000000 8.000000
      vertex 65.000000 61.000000 0.000000
    endloop
  endfacet
  facet normal 0.000000 1.000000 0.000000
    outer loop
      vertex 25.000000 61.000000 0.000000
      vertex 25.000000 61.000000 8.000000
      vertex 65.000000 61.000000 0.000000
    endloop
  endfacet
  facet normal 0.000000 1.000000 0.000000
    outer loop
      vertex 65.000000 61.000000 0.000000
      vertex 25.000000 61.000000 8.000000
      vertex 65.000000 61.000000 8.000000
    endloop
  endfacet
  facet normal -1.000000 -0.000000 -0.000000
    outer loop
      vertex 25.000000 45.400000 0.000000
      vertex 25.000000 45.400000 8.000000
      vertex 25.000000 61.000000 0.000000
    endloop
  endfacet
  facet normal -1.000000 0.000000 0.000000
    outer loop
      vertex 25.000000 61.000000 0.000000
      vertex 25.000000 45.400000 8.000000
      vertex 25.000000 61.000000 8.000000
    endloop
  endfacet
  facet normal 0.000000 -1.000000 0.000000
    outer loop
      vertex 32.600000 45.400000 0.000000
      vertex 32.600000 45.400000 8.000000
      vertex 25.000000 45.400000 8.000000
    endloop
  endfacet
  facet normal -0.000000 -1.000000 -0.000000
    outer loop
      vertex 25.000000 45.400000 0.000000
      vertex 32.600000 45.400000 0.000000
      vertex 25.000000 45.400000 8.000000
    endloop
  endfacet
  facet normal 1.000000 0.000000 0.000000
    outer loop
      vertex 32.600000 53.400000 0.000000
      vertex 32.600000 53.400000 8.000000
      vertex 32.600000 45.400000 8.000000
    endloop
  endfacet
  facet normal 1.000000 0.000000 0.000000
    outer loop
      vertex 32.600000 45.400000 0.000000
      vertex 32.600000 53.400000 0.000000
      vertex 32.600000 45.400000 8.000000
    endloop
  endfacet
  facet normal 0.000000 -1.000000 0.000000
    outer loop
      vertex 41.400000 53.400000 0.000000
      vertex 41.400000 53.400000 8.000000
      vertex 32.600000 53.400000 8.000000
    endloop
  endfacet
  facet normal -0.000000 -1.000000 -0.000000
    outer loop
      vertex 32.600000 53.400000 0.000000
      vertex 41.400000 53.400000 0.000000
      vertex 32.600000 53.400000 8.000000
    endloop
  endfacet
  facet normal -1.000000 0.000000 0.000000
    outer loop
      vertex 41.400000 53.400000 8.000000
      vertex 41.400000 53.400000 0.000000
      vertex 41.400000 45.400000 8.000000
    endloop
  endfacet
  facet normal -1.000000 0.000000 0.000000
    outer loop
      vertex 41.400000 45.400000 8.000000
      vertex 41.400000 53.400000 0.000000
      vertex 41.400000 45.400000 0.000000
    endloop
  endfacet
  facet normal 0.000000 -1.000000 0.000000
    outer loop
      vertex 48.600000 45.400000 0.000000
      vertex 48.600000 45.400000 8.000000
      vertex 41.400000 45.400000 8.000000
    endloop
  endfacet
  facet normal -0.000000 -1.000000 -0.000000
    outer loop
      vertex 41.400000 45.400000 0.000000
      vertex 48.600000 45.400000 0.000000
      vertex 41.400000 45.400000 8.000000
    endloop
  endfacet
  facet normal 1.000000 0.000000 0.000000
    outer loop
      vertex 48.600000 53.400000 0.000000
      vertex 48.600000 53.400000 8.000000
      vertex 48.600000 45.400000 8.000000
    endloop
  endfacet
  facet normal 1.000000 0.000000 0.000000
    outer loop
      vertex 48.600000 45.400000 0.000000
      vertex 48.600000 53.400000 0.000000
      vertex 48.600000 45.400000 8.000000
    endloop
  endfacet
  facet normal 0.000000 -1.000000 0.000000
    outer loop
      vertex 57.400000 53.400000 0.000000
      vertex 57.400000 53.400000 8.000000
      vertex 48.600000 53.400000 8.000000
    endloop
  endfacet
  facet normal -0.000000 -1.000000 -0.000000
    outer loop
      vertex 48.600000 53.400000 0.000000
      vertex 57.400000 53.400000 0.000000
      vertex 48.600000 53.400000 8.000000
    endloop
  endfacet
  facet normal -1.000000 0.000000 0.000000
    outer loop
      vertex 57.400000 53.400000 8.000000
      vertex 57.400000 53.400000 0.000000
      vertex 57.400000 12.600000 8.000000
    endloop
  endfacet
  facet normal -1.000000 0.000000 0.000000
    outer loop
      vertex 57.400000 12.600000 8.000000
      vertex 57.400000 53.400000 0.000000
      vertex 57.400000 12.600000 0.000000
    endloop
  endfacet
  facet normal 0.000000 1.000000 0.000000
    outer loop
      vertex 57.400000 12.600000 8.000000
      vertex 57.400000 12.600000 0.000000
      vertex 48.600000 12.600000 8.000000
    endloop
  endfacet
  facet normal 0.000000 1.000000 -0.000000
    outer loop
      vertex 48.600000 12.600000 8.000000
      vertex 57.400000 12.600000 0.000000
      vertex 48.600000 12.600000 0.000000
    endloop
  endfacet
  facet normal 1.000000 0.000000 0.000000
    outer loop
      vertex 48.600000 20.600000 0.000000
      vertex 48.600000 20.600000 8.000000
      vertex 48.600000 12.600000 8.000000
    endloop
  endfacet
  facet normal 1.000000 0.000000 0.000000
    outer loop
      vertex 48.600000 12.600000 0.000000
      vertex 48.600000 20.600000 0.000000
      vertex 48.600000 12.600000 8.000000
    endloop
  endfacet
  facet normal 0.000000 1.000000 0.000000
    outer loop
      vertex 48.600000 20.600000 8.000000
      vertex 48.600000 20.600000 0.000000
      vertex 41.400000 20.600000 8.000000
    endloop
  endfacet
  facet normal 0.000000 1.000000 -0.000000
    outer loop
      vertex 41.400000 20.600000 8.000000
      vertex 48.600000 20.600000 0.000000
      vertex 41.400000 20.600000 0.000000
    endloop
  endfacet
  facet normal -1.000000 0.000000 0.000000
    outer loop
      vertex 41.400000 20.600000 8.000000
      vertex 41.400000 20.600000 0.000000
      vertex 41.400000 12.600000 8.000000
    endloop
  endfacet
  facet normal -1.000000 0.000000 0.000000
    outer loop
      vertex 41.400000 12.600000 8.000000
      vertex 41.400000 20.600000 0.000000
      vertex 41.400000 12.600000 0.000000
    endloop
  endfacet
  facet normal 0.000000 1.000000 0.000000
    outer loop
      vertex 41.400000 12.600000 8.000000
      vertex 41.400000 12.600000 0.000000
      vertex 32.600000 12.600000 8.000000
    endloop
  endfacet
  facet normal 0.000000 1.000000 -0.000000
    outer loop
      vertex 32.600000 12.600000 8.000000
      vertex 41.400000 12.600000 0.000000
      vertex 32.600000 12.600000 0.000000
    endloop
  endfacet
  facet normal 1.000000 0.000000 0.000000
    outer loop
      vertex 32.600000 36.600000 0.000000
      vertex 32.600000 36.600000 8.000000
      vertex 32.600000 12.600000 8.000000
    endloop
  endfacet
  facet normal 1.000000 0.000000 0.000000
    outer loop
      vertex 32.600000 12.600000 0.000000
      vertex 32.600000 36.600000 0.000000
      vertex 32.600000 12.600000 8.000000
    endloop
  endfacet
  facet normal -1.000000 -0.000000 -0.000000
    outer loop
      vertex -65.000000 -56.000000 0.000000
      vertex -65.000000 -56.000000 8.000000
      vertex -65.000000 -40.400000 0.000000
    endloop
  endfacet
  facet normal -1.000000 0.000000 0.000000
    outer loop
      vertex -65.000000 -40.400000 0.000000
      vertex -65.000000 -56.000000 8.000000
      vertex -65.000000 -40.400000 8.000000
    endloop
  endfacet
  facet normal 0.000000 -1.000000 0.000000
    outer loop
      vertex -65.000000 -56.000000 8.000000
      vertex -65.000000 -56.000000 0.000000
      vertex -25.000000 -56.000000 0.000000
    endloop
  endfacet
  facet normal 0.000000 -1.000000 0.000000
    outer loop
      vertex -25.000000 -56.000000 8.000000
      vertex -65.000000 -56.000000 8.000000
      vertex -25.000000 -56.000000 0.000000
    endloop
  endfacet
  facet normal 0.000000 0.000000 -1.000000
    outer loop
      vertex -25.000000 -40.400000 0.000000
      vertex -25.000000 -56.000000 0.000000
      vertex -32.600000 -40.400000 0.000000
    endloop
  endfacet
  facet normal 0.000000 -0.000000 -1.000000
    outer loop
      vertex -65.000000 -56.000000 0.000000
      vertex -65.000000 -40.400000 0.000000
      vertex -57.400000 -48.400000 0.000000
    endloop
  endfacet
  facet normal -0.000000 0.000000 -1.000000
    outer loop
      vertex -65.000000 -56.000000 0.000000
      vertex -57.400000 -48.400000 0.000000
      vertex -25.000000 -56.000000 0.000000
    endloop
  endfacet
  facet normal 0.000000 0.000000 -1.000000
    outer loop
      vertex -32.600000 -48.400000 0.000000
      vertex -25.000000 -56.000000 0.000000
      vertex -41.400000 -48.400000 0.000000
    endloop
  endfacet
  facet normal 0.000000 0.000000 -1.000000
    outer loop
      vertex -57.400000 -48.400000 0.000000
      vertex -48.600000 -48.400000 0.000000
      vertex -25.000000 -56.000000 0.000000
    endloop
  endfacet
  facet normal -0.000000 0.000000 -1.000000
    outer loop
      vertex -65.000000 -15.600000 0.000000
      vertex -57.400000 -7.600000 0.000000
      vertex -57.400000 -15.600000 0.000000
    endloop
  endfacet
  facet normal 0.000000 0.000000 -1.000000
    outer loop
      vertex -57.400000 -31.600000 0.000000
      vertex -65.000000 -31.600000 0.000000
      vertex -65.000000 -24.400000 0.000000
    endloop
  endfacet
  facet normal -0.000000 -0.000000 -1.000000
    outer loop
      vertex -57.400000 -31.600000 0.000000
      vertex -65.000000 -24.400000 0.000000
      vertex -48.600000 -31.600000 0.000000
    endloop
  endfacet
  facet normal 0.000000 0.000000 -1.000000
    outer loop
      vertex -48.600000 -31.600000 0.000000
      vertex -65.000000 -24.400000 0.000000
      vertex -48.600000 -24.400000 0.000000
    endloop
  endfacet
  facet normal 0.000000 0.000000 -1.000000
    outer loop
      vertex -32.600000 -7.600000 0.000000
      vertex -25.000000 -31.600000 0.000000
      vertex -32.600000 -31.600000 0.000000
    endloop
  endfacet
  facet normal 0.000000 0.000000 -1.000000
    outer loop
      vertex -57.400000 -7.600000 0.000000
      vertex -65.000000 -15.600000 0.000000
      vertex -65.000000 0.000000 0.000000
    endloop
  endfacet
  facet normal -0.000000 -0.000000 -1.000000
    outer loop
      vertex -57.400000 -7.600000 0.000000
      vertex -65.000000 0.000000 0.000000
      vertex -48.600000 -7.600000 0.000000
    endloop
  endfacet
  facet normal 0.000000 -0.000000 -1.000000
    outer loop
      vertex -48.600000 -7.600000 0.000000
      vertex -65.000000 0.000000 0.000000
      vertex -25.000000 0.000000 0.000000
    endloop
  endfacet
  facet normal -0.000000 0.000000 -1.000000
    outer loop
      vertex -32.600000 -7.600000 0.000000
      vertex -25.000000 0.000000 0.000000
      vertex -25.000000 -31.600000 0.000000
    endloop
  endfacet
  facet normal 0.000000 0.000000 -1.000000
    outer loop
      vertex -41.400000 -48.400000 0.000000
      vertex -48.600000 -7.600000 0.000000
      vertex -41.400000 -7.600000 0.000000
    endloop
  endfacet
  facet normal -0.000000 0.000000 -1.000000
    outer loop
      vertex -48.600000 -7.600000 0.000000
      vertex -25.000000 0.000000 0.000000
      vertex -32.600000 -7.600000 0.000000
    endloop
  endfacet
  facet normal 0.000000 0.000000 -1.000000
    outer loop
      vertex -41.400000 -48.400000 0.000000
      vertex -48.600000 -31.600000 0.000000
      vertex -48.600000 -24.400000 0.000000
    endloop
  endfacet
  facet normal 0.000000 0.000000 -0.000000
    outer loop
      vertex -48.600000 -7.600000 0.000000
      vertex -32.600000 -7.600000 0.000000
      vertex -41.400000 -7.600000 0.000000
    endloop
  endfacet
  facet normal 0.000000 0.000000 -1.000000
    outer loop
      vertex -41.400000 -48.400000 0.000000
      vertex -48.600000 -24.400000 0.000000
      vertex -48.600000 -7.600000 0.000000
    endloop
  endfacet
  facet normal 0.000000 0.000000 -1.000000
    outer loop
      vertex -48.600000 -31.600000 0.000000
      vertex -41.400000 -48.400000 0.000000
      vertex -48.600000 -48.400000 0.000000
    endloop
  endfacet
  facet normal 0.000000 0.000000 -1.000000
    outer loop
      vertex -57.400000 -48.400000 0.000000
      vertex -65.000000 -40.400000 0.000000
      vertex -57.400000 -40.400000 0.000000
    endloop
  endfacet
  facet normal 0.000000 0.000000 -1.000000
    outer loop
      vertex -41.400000 -48.400000 0.000000
      vertex -25.000000 -56.000000 0.000000
      vertex -48.600000 -48.400000 0.000000
    endloop
  endfacet
  facet normal 0.000000 0.000000 -1.000000
    outer loop
      vertex -32.600000 -40.400000 0.000000
      vertex -25.000000 -56.000000 0.000000
      vertex -32.600000 -48.400000 0.000000
    endloop
  endfacet
  facet normal 0.000000 1.000000 0.000000
    outer loop
      vertex -57.400000 -40.400000 8.000000
      vertex -57.400000 -40.400000 0.000000
      vertex -65.000000 -40.400000 8.000000
    endloop
  endfacet
  facet normal 0.000000 1.000000 -0.000000
    outer loop
      vertex -65.000000 -40.400000 8.000000
      vertex -57.400000 -40.400000 0.000000
      vertex -65.000000 -40.400000 0.000000
    endloop
  endfacet
  facet normal 0.000000 -0.000000 1.000000
    outer loop
      vertex -48.600000 -48.400000 8.000000
      vertex -65.000000 -56.000000 8.000000
      vertex -25.000000 -56.000000 8.000000
    endloop
  endfacet
  facet normal 0.000000 0.000000 1.000000
    outer loop
      vertex -57.400000 -48.400000 8.000000
      vertex -57.400000 -40.400000 8.000000
      vertex -65.000000 -40.400000 8.000000
    endloop
  endfacet
  facet normal 0.000000 0.000000 1.000000
    outer loop
      vertex -25.000000 -40.400000 8.000000
      vertex -32.600000 -40.400000 8.000000
      vertex -25.000000 -56.000000 8.000000
    endloop
  endfacet
  facet normal 0.000000 -0.000000 1.000000
    outer loop
      vertex -32.600000 -40.400000 8.000000
      vertex -32.600000 -48.400000 8.000000
      vertex -25.000000 -56.000000 8.000000
    endloop
  endfacet
  facet normal 0.000000 -0.000000 1.000000
    outer loop
      vertex -32.600000 -48.400000 8.000000
      vertex -41.400000 -48.400000 8.000000
      vertex -25.000000 -56.000000 8.000000
    endloop
  endfacet
  facet normal 0.000000 -0.000000 1.000000
    outer loop
      vertex -48.600000 -7.600000 8.000000
      vertex -48.600000 -24.400000 8.000000
      vertex -41.400000 -7.600000 8.000000
    endloop
  endfacet
  facet normal -0.000000 0.000000 1.000000
    outer loop
      vertex -32.600000 -7.600000 8.000000
      vertex -25.000000 0.000000 8.000000
      vertex -41.400000 -7.600000 8.000000
    endloop
  endfacet
  facet normal 0.000000 0.000000 1.000000
    outer loop
      vertex -32.600000 -31.600000 8.000000
      vertex -25.000000 -31.600000 8.000000
      vertex -32.600000 -7.600000 8.000000
    endloop
  endfacet
  facet normal 0.000000 0.000000 1.000000
    outer loop
      vertex -25.000000 -31.600000 8.000000
      vertex -25.000000 0.000000 8.000000
      vertex -32.600000 -7.600000 8.000000
    endloop
  endfacet
  facet normal 0.000000 0.000000 1.000000
    outer loop
      vertex -25.000000 0.000000 8.000000
      vertex -65.000000 0.000000 8.000000
      vertex -41.400000 -7.600000 8.000000
    endloop
  endfacet
  facet normal -0.000000 0.000000 1.000000
    outer loop
      vertex -57.400000 -7.600000 8.000000
      vertex -65.000000 0.000000 8.000000
      vertex -65.000000 -15.600000 8.000000
    endloop
  endfacet
  facet normal 0.000000 0.000000 1.000000
    outer loop
      vertex -48.600000 -24.400000 8.000000
      vertex -65.000000 -24.400000 8.000000
      vertex -65.000000 -31.600000 8.000000
    endloop
  endfacet
  facet normal 0.000000 0.000000 1.000000
    outer loop
      vertex -57.400000 -31.600000 8.000000
      vertex -48.600000 -31.600000 8.000000
      vertex -48.600000 -24.400000 8.000000
    endloop
  endfacet
  facet normal 0.000000 -0.000000 1.000000
    outer loop
      vertex -41.400000 -48.400000 8.000000
      vertex -48.600000 -48.400000 8.000000
      vertex -25.000000 -56.000000 8.000000
    endloop
  endfacet
  facet normal -0.000000 0.000000 1.000000
    outer loop
      vertex -48.600000 -7.600000 8.000000
      vertex -65.000000 0.000000 8.000000
      vertex -57.400000 -7.600000 8.000000
    endloop
  endfacet
  facet normal 0.000000 0.000000 1.000000
    outer loop
      vertex -41.400000 -7.600000 8.000000
      vertex -65.000000 0.000000 8.000000
      vertex -48.600000 -7.600000 8.000000
    endloop
  endfacet
  facet normal 0.000000 0.000000 1.000000
    outer loop
      vertex -48.600000 -24.400000 8.000000
      vertex -65.000000 -31.600000 8.000000
      vertex -57.400000 -31.600000 8.000000
    endloop
  endfacet
  facet normal -0.000000 0.000000 1.000000
    outer loop
      vertex -57.400000 -15.600000 8.000000
      vertex -57.400000 -7.600000 8.000000
      vertex -65.000000 -15.600000 8.000000
    endloop
  endfacet
  facet normal 0.000000 -0.000000 1.000000
    outer loop
      vertex -57.400000 -48.400000 8.000000
      vertex -65.000000 -56.000000 8.000000
      vertex -48.600000 -48.400000 8.000000
    endloop
  endfacet
  facet normal 0.000000 -0.000000 1.000000
    outer loop
      vertex -65.000000 -40.400000 8.000000
      vertex -65.000000 -56.000000 8.000000
      vertex -57.400000 -48.400000 8.000000
    endloop
  endfacet
  facet normal 0.000000 -0.000000 1.000000
    outer loop
      vertex -48.600000 -31.600000 8.000000
      vertex -48.600000 -48.400000 8.000000
      vertex -41.400000 -48.400000 8.000000
    endloop
  endfacet
  facet normal 0.000000 0.000000 1.000000
    outer loop
      vertex -41.400000 -48.400000 8.000000
      vertex -48.600000 -24.400000 8.000000
      vertex -48.600000 -31.600000 8.000000
    endloop
  endfacet
  facet normal 0.000000 0.000000 1.000000
    outer loop
      vertex -41.400000 -48.400000 8.000000
      vertex -41.400000 -7.600000 8.000000
      vertex -48.600000 -24.400000 8.000000
    endloop
  endfacet
  facet normal 1.000000 0.000000 -0.000000
    outer loop
      vertex -25.000000 -56.000000 8.000000
      vertex -25.000000 -56.000000 0.000000
      vertex -25.000000 -40.400000 0.000000
    endloop
  endfacet
  facet normal 1.000000 0.000000 0.000000
    outer loop
      vertex -25.000000 -40.400000 8.000000
      vertex -25.000000 -56.000000 8.000000
      vertex -25.000000 -40.400000 0.000000
    endloop
  endfacet
  facet normal 0.000000 1.000000 0.000000
    outer loop
      vertex -25.000000 -40.400000 8.000000
      vertex -25.000000 -40.400000 0.000000
      vertex -32.600000 -40.400000 8.000000
    endloop
  endfacet
  facet normal 0.000000 1.000000 -0.000000
    outer loop
      vertex -32.600000 -40.400000 8.000000
      vertex -25.000000 -40.400000 0.000000
      vertex -32.600000 -40.400000 0.000000
    endloop
  endfacet
  facet normal -1.000000 0.000000 0.000000
    outer loop
      vertex -32.600000 -40.400000 8.000000
      vertex -32.600000 -40.400000 0.000000
      vertex -32.600000 -48.400000 8.000000
    endloop
  endfacet
  facet normal -1.000000 0.000000 0.000000
    outer loop
      vertex -32.600000 -48.400000 8.000000
      vertex -32.600000 -40.400000 0.000000
      vertex -32.600000 -48.400000 0.000000
    endloop
  endfacet
  facet normal 0.000000 1.000000 0.000000
    outer loop
      vertex -32.600000 -48.400000 8.000000
      vertex -32.600000 -48.400000 0.000000
      vertex -41.400000 -48.400000 8.000000
    endloop
  endfacet
  facet normal 0.000000 1.000000 -0.000000
    outer loop
      vertex -41.400000 -48.400000 8.000000
      vertex -32.600000 -48.400000 0.000000
      vertex -41.400000 -48.400000 0.000000
    endloop
  endfacet
  facet normal 1.000000 0.000000 0.000000
    outer loop
      vertex -41.400000 -7.600000 0.000000
      vertex -41.400000 -7.600000 8.000000
      vertex -41.400000 -48.400000 8.000000
    endloop
  endfacet
  facet normal 1.000000 0.000000 0.000000
    outer loop
      vertex -41.400000 -48.400000 0.000000
      vertex -41.400000 -7.600000 0.000000
      vertex -41.400000 -48.400000 8.000000
    endloop
  endfacet
  facet normal 0.000000 -1.000000 0.000000
    outer loop
      vertex -32.600000 -7.600000 0.000000
      vertex -32.600000 -7.600000 8.000000
      vertex -41.400000 -7.600000 8.000000
    endloop
  endfacet
  facet normal -0.000000 -1.000000 -0.000000
    outer loop
      vertex -41.400000 -7.600000 0.000000
      vertex -32.600000 -7.600000 0.000000
      vertex -41.400000 -7.600000 8.000000
    endloop
  endfacet
  facet normal -1.000000 0.000000 0.000000
    outer loop
      vertex -32.600000 -7.600000 8.000000
      vertex -32.600000 -7.600000 0.000000
      vertex -32.600000 -31.600000 8.000000
    endloop
  endfacet
  facet normal -1.000000 0.000000 0.000000
    outer loop
      vertex -32.600000 -31.600000 8.000000
      vertex -32.600000 -7.600000 0.000000
      vertex -32.600000 -31.600000 0.000000
    endloop
  endfacet
  facet normal 0.000000 -1.000000 0.000000
    outer loop
      vertex -25.000000 -31.600000 0.000000
      vertex -25.000000 -31.600000 8.000000
      vertex -32.600000 -31.600000 8.000000
    endloop
  endfacet
  facet normal -0.000000 -1.000000 -0.000000
    outer loop
      vertex -32.600000 -31.600000 0.000000
      vertex -25.000000 -31.600000 0.000000
      vertex -32.600000 -31.600000 8.000000
    endloop
  endfacet
  facet normal 1.000000 0.000000 -0.000000
    outer loop
      vertex -25.000000 -31.600000 8.000000
      vertex -25.000000 -31.600000 0.000000
      vertex -25.000000 0.000000 0.000000
    endloop
  endfacet
  facet normal 1.000000 0.000000 0.000000
    outer loop
      vertex -25.000000 0.000000 8.000000
      vertex -25.000000 -31.600000 8.000000
      vertex -25.000000 0.000000 0.000000
    endloop
  endfacet
  facet normal 0.000000 1.000000 0.000000
    outer loop
      vertex -65.000000 0.000000 0.000000
      vertex -65.000000 0.000000 8.000000
      vertex -25.000000 0.000000 0.000000
    endloop
  endfacet
  facet normal 0.000000 1.000000 0.000000
    outer loop
      vertex -25.000000 0.000000 0.000000
      vertex -65.000000 0.000000 8.000000
      vertex -25.000000 0.000000 8.000000
    endloop
  endfacet
  facet normal -1.000000 -0.000000 -0.000000
    outer loop
      vertex -65.000000 -15.600000 0.000000
      vertex -65.000000 -15.600000 8.000000
      vertex -65.000000 0.000000 0.000000
    endloop
  endfacet
  facet normal -1.000000 0.000000 0.000000
    outer loop
      vertex -65.000000 0.000000 0.000000
      vertex -65.000000 -15.600000 8.000000
      vertex -65.000000 0.000000 8.000000
    endloop
  endfacet
  facet normal 0.000000 -1.000000 0.000000
    outer loop
      vertex -57.400000 -15.600000 0.000000
      vertex -57.400000 -15.600000 8.000000
      vertex -65.000000 -15.600000 8.000000
    endloop
  endfacet
  facet normal -0.000000 -1.000000 -0.000000
    outer loop
      vertex -65.000000 -15.600000 0.000000
      vertex -57.400000 -15.600000 0.000000
      vertex -65.000000 -15.600000 8.000000
    endloop
  endfacet
  facet normal 1.000000 0.000000 0.000000
    outer loop
      vertex -57.400000 -7.600000 0.000000
      vertex -57.400000 -7.600000 8.000000
      vertex -57.400000 -15.600000 8.000000
    endloop
  endfacet
  facet normal 1.000000 0.000000 0.000000
    outer loop
      vertex -57.400000 -15.600000 0.000000
      vertex -57.400000 -7.600000 0.000000
      vertex -57.400000 -15.600000 8.000000
    endloop
  endfacet
  facet normal 0.000000 -1.000000 0.000000
    outer loop
      vertex -48.600000 -7.600000 0.000000
      vertex -48.600000 -7.600000 8.000000
      vertex -57.400000 -7.600000 8.000000
    endloop
  endfacet
  facet normal -0.000000 -1.000000 -0.000000
    outer loop
      vertex -57.400000 -7.600000 0.000000
      vertex -48.600000 -7.600000 0.000000
      vertex -57.400000 -7.600000 8.000000
    endloop
  endfacet
  facet normal -1.000000 0.000000 0.000000
    outer loop
      vertex -48.600000 -7.600000 8.000000
      vertex -48.600000 -7.600000 0.000000
      vertex -48.600000 -24.400000 8.000000
    endloop
  endfacet
  facet normal -1.000000 0.000000 0.000000
    outer loop
      vertex -48.600000 -24.400000 8.000000
      vertex -48.600000 -7.600000 0.000000
      vertex -48.600000 -24.400000 0.000000
    endloop
  endfacet
  facet normal 0.000000 1.000000 0.000000
    outer loop
      vertex -48.600000 -24.400000 8.000000
      vertex -48.600000 -24.400000 0.000000
      vertex -65.000000 -24.400000 8.000000
    endloop
  endfacet
  facet normal 0.000000 1.000000 -0.000000
    outer loop
      vertex -65.000000 -24.400000 8.000000
      vertex -48.600000 -24.400000 0.000000
      vertex -65.000000 -24.400000 0.000000
    endloop
  endfacet
  facet normal -1.000000 -0.000000 -0.000000
    outer loop
      vertex -65.000000 -31.600000 0.000000
      vertex -65.000000 -31.600000 8.000000
      vertex -65.000000 -24.400000 0.000000
    endloop
  endfacet
  facet normal -1.000000 0.000000 0.000000
    outer loop
      vertex -65.000000 -24.400000 0.000000
      vertex -65.000000 -31.600000 8.000000
      vertex -65.000000 -24.400000 8.000000
    endloop
  endfacet
  facet normal 0.000000 -1.000000 0.000000
    outer loop
      vertex -57.400000 -31.600000 0.000000
      vertex -57.400000 -31.600000 8.000000
      vertex -65.000000 -31.600000 8.000000
    endloop
  endfacet
  facet normal -0.000000 -1.000000 -0.000000
    outer loop
      vertex -65.000000 -31.600000 0.000000
      vertex -57.400000 -31.600000 0.000000
      vertex -65.000000 -31.600000 8.000000
    endloop
  endfacet
  facet normal 0.000000 -1.000000 0.000000
    outer loop
      vertex -48.600000 -31.600000 0.000000
      vertex -48.600000 -31.600000 8.000000
      vertex -57.400000 -31.600000 8.000000
    endloop
  endfacet
  facet normal -0.000000 -1.000000 -0.000000
    outer loop
      vertex -57.400000 -31.600000 0.000000
      vertex -48.600000 -31.600000 0.000000
      vertex -57.400000 -31.600000 8.000000
    endloop
  endfacet
  facet normal -1.000000 0.000000 0.000000
    outer loop
      vertex -48.600000 -31.600000 8.000000
      vertex -48.600000 -31.600000 0.000000
      vertex -48.600000 -48.400000 8.000000
    endloop
  endfacet
  facet normal -1.000000 0.000000 0.000000
    outer loop
      vertex -48.600000 -48.400000 8.000000
      vertex -48.600000 -31.600000 0.000000
      vertex -48.600000 -48.400000 0.000000
    endloop
  endfacet
  facet normal 0.000000 1.000000 0.000000
    outer loop
      vertex -48.600000 -48.400000 8.000000
      vertex -48.600000 -48.400000 0.000000
      vertex -57.400000 -48.400000 8.000000
    endloop
  endfacet
  facet normal 0.000000 1.000000 -0.000000
    outer loop
      vertex -57.400000 -48.400000 8.000000
      vertex -48.600000 -48.400000 0.000000
      vertex -57.400000 -48.400000 0.000000
    endloop
  endfacet
  facet normal 1.000000 0.000000 0.000000
    outer loop
      vertex -57.400000 -40.400000 0.000000
      vertex -57.400000 -40.400000 8.000000
      vertex -57.400000 -48.400000 8.000000
    endloop
  endfacet
  facet normal 1.000000 0.000000 0.000000
    outer loop
      vertex -57.400000 -48.400000 0.000000
      vertex -57.400000 -40.400000 0.000000
      vertex -57.400000 -48.400000 8.000000
    endloop
  endfacet
  facet normal -1.000000 -0.000000 -0.000000
    outer loop
      vertex -20.000000 -56.000000 0.000000
      vertex -20.000000 -56.000000 8.000000
      vertex -20.000000 -24.400000 0.000000
    endloop
  endfacet
  facet normal -1.000000 0.000000 0.000000
    outer loop
      vertex -20.000000 -24.400000 0.000000
      vertex -20.000000 -56.000000 8.000000
      vertex -20.000000 -24.400000 8.000000
    endloop
  endfacet
  facet normal 0.000000 -1.000000 0.000000
    outer loop
      vertex -20.000000 -56.000000 8.000000
      vertex -20.000000 -56.000000 0.000000
      vertex 20.000000 -56.000000 0.000000
    endloop
  endfacet
  facet normal 0.000000 -1.000000 0.000000
    outer loop
      vertex 20.000000 -56.000000 8.000000
      vertex -20.000000 -56.000000 8.000000
      vertex 20.000000 -56.000000 0.000000
    endloop
  endfacet
  facet normal 0.000000 0.000000 -1.000000
    outer loop
      vertex -3.600000 -7.600000 0.000000
      vertex 3.600000 -7.600000 0.000000
      vertex -3.600000 -15.600000 0.000000
    endloop
  endfacet
  facet normal 0.000000 -0.000000 -1.000000
    outer loop
      vertex -20.000000 -56.000000 0.000000
      vertex -20.000000 -24.400000 0.000000
      vertex -12.400000 -48.400000 0.000000
    endloop
  endfacet
  facet normal -0.000000 0.000000 -1.000000
    outer loop
      vertex -20.000000 -56.000000 0.000000
      vertex -12.400000 -48.400000 0.000000
      vertex 20.000000 -56.000000 0.000000
    endloop
  endfacet
  facet normal 0.000000 0.000000 -1.000000
    outer loop
      vertex 3.600000 -48.400000 0.000000
      vertex -3.600000 -40.400000 0.000000
      vertex 3.600000 -40.400000 0.000000
    endloop
  endfacet
  facet normal 0.000000 0.000000 -1.000000
    outer loop
      vertex -12.400000 -48.400000 0.000000
      vertex -3.600000 -48.400000 0.000000
      vertex 20.000000 -56.000000 0.000000
    endloop
  endfacet
  facet normal 0.000000 0.000000 -1.000000
    outer loop
      vertex 3.600000 -15.600000 0.000000
      vertex -3.600000 -15.600000 0.000000
      vertex 3.600000 -7.600000 0.000000
    endloop
  endfacet
  facet normal 0.000000 0.000000 -1.000000
    outer loop
      vertex 12.400000 -48.400000 0.000000
      vertex 20.000000 -56.000000 0.000000
      vertex 3.600000 -48.400000 0.000000
    endloop
  endfacet
  facet normal -0.000000 -0.000000 -1.000000
    outer loop
      vertex -3.600000 -48.400000 0.000000
      vertex -3.600000 -40.400000 0.000000
      vertex 3.600000 -48.400000 0.000000
    endloop
  endfacet
  facet normal 0.000000 0.000000 -1.000000
    outer loop
      vertex -3.600000 -48.400000 0.000000
      vertex 3.600000 -48.400000 0.000000
      vertex 20.000000 -56.000000 0.000000
    endloop
  endfacet
  facet normal 0.000000 0.000000 -1.000000
    outer loop
      vertex 20.000000 -56.000000 0.000000
      vertex 12.400000 -48.400000 0.000000
      vertex 12.400000 -7.600000 0.000000
    endloop
  endfacet
  facet normal -0.000000 0.000000 -1.000000
    outer loop
      vertex -20.000000 -15.600000 0.000000
      vertex -12.400000 -7.600000 0.000000
      vertex -12.400000 -15.600000 0.000000
    endloop
  endfacet
  facet normal -0.000000 -0.000000 -1.000000
    outer loop
      vertex 3.600000 -7.600000 0.000000
      vertex -20.000000 0.000000 0.000000
      vertex 12.400000 -7.600000 0.000000
    endloop
  endfacet
  facet normal -0.000000 -0.000000 -1.000000
    outer loop
      vertex -3.600000 -7.600000 0.000000
      vertex -20.000000 0.000000 0.000000
      vertex 3.600000 -7.600000 0.000000
    endloop
  endfacet
  facet normal 0.000000 0.000000 -1.000000
    outer loop
      vertex -12.400000 -7.600000 0.000000
      vertex -20.000000 -15.600000 0.000000
      vertex -20.000000 0.000000 0.000000
    endloop
  endfacet
  facet normal -0.000000 -0.000000 -1.000000
    outer loop
      vertex -12.400000 -7.600000 0.000000
      vertex -20.000000 0.000000 0.000000
      vertex -3.600000 -7.600000 0.000000
    endloop
  endfacet
  facet normal 0.000000 -0.000000 -1.000000
    outer loop
      vertex 12.400000 -7.600000 0.000000
      vertex -20.000000 0.000000 0.000000
      vertex 20.000000 0.000000 0.000000
    endloop
  endfacet
  facet normal -0.000000 0.000000 -1.000000
    outer loop
      vertex 12.400000 -7.600000 0.000000
      vertex 20.000000 0.000000 0.000000
      vertex 20.000000 -56.000000 0.000000
    endloop
  endfacet
  facet normal 0.000000 0.000000 -1.000000
    outer loop
      vertex -12.400000 -48.400000 0.000000
      vertex -20.000000 -24.400000 0.000000
      vertex -12.400000 -24.400000 0.000000
    endloop
  endfacet
  facet normal 0.000000 1.000000 0.000000
    outer loop
      vertex -12.400000 -24.400000 8.000000
      vertex -12.400000 -24.400000 0.000000
      vertex -20.000000 -24.400000 8.000000
    endloop
  endfacet
  facet normal 0.000000 1.000000 -0.000000
    outer loop
      vertex -20.000000 -24.400000 8.000000
      vertex -12.400000 -24.400000 0.000000
      vertex -20.000000 -24.400000 0.000000
    endloop
  endfacet
  facet normal 0.000000 -0.000000 1.000000
    outer loop
      vertex 3.600000 -48.400000 8.000000
      vertex -20.000000 -56.000000 8.000000
      vertex 20.000000 -56.000000 8.000000
    endloop
  endfacet
  facet normal -0.000000 0.000000 1.000000
    outer loop
      vertex 3.600000 -15.600000 8.000000
      vertex 3.600000 -7.600000 8.000000
      vertex -3.600000 -15.600000 8.000000
    endloop
  endfacet
  facet normal 0.000000 0.000000 1.000000
    outer loop
      vertex 3.600000 -48.400000 8.000000
      vertex 3.600000 -40.400000 8.000000
      vertex -3.600000 -40.400000 8.000000
    endloop
  endfacet
  facet normal 0.000000 -0.000000 1.000000
    outer loop
      vertex 12.400000 -7.600000 8.000000
      vertex 12.400000 -48.400000 8.000000
      vertex 20.000000 -56.000000 8.000000
    endloop
  endfacet
  facet normal 0.000000 0.000000 1.000000
    outer loop
      vertex -20.000000 0.000000 8.000000
      vertex -12.400000 -7.600000 8.000000
      vertex 20.000000 0.000000 8.000000
    endloop
  endfacet
  facet normal 0.000000 -0.000000 1.000000
    outer loop
      vertex -20.000000 0.000000 8.000000
      vertex -20.000000 -15.600000 8.000000
      vertex -12.400000 -7.600000 8.000000
    endloop
  endfacet
  facet normal 0.000000 0.000000 1.000000
    outer loop
      vertex -12.400000 -7.600000 8.000000
      vertex -3.600000 -7.600000 8.000000
      vertex 20.000000 0.000000 8.000000
    endloop
  endfacet
  facet normal 0.000000 -0.000000 1.000000
    outer loop
      vertex 12.400000 -48.400000 8.000000
      vertex 3.600000 -48.400000 8.000000
      vertex 20.000000 -56.000000 8.000000
    endloop
  endfacet
  facet normal 0.000000 0.000000 1.000000
    outer loop
      vertex 3.600000 -7.600000 8.000000
      vertex 12.400000 -7.600000 8.000000
      vertex 20.000000 0.000000 8.000000
    endloop
  endfacet
  facet normal 0.000000 -0.000000 1.000000
    outer loop
      vertex -3.600000 -7.600000 8.000000
      vertex -3.600000 -15.600000 8.000000
      vertex 3.600000 -7.600000 8.000000
    endloop
  endfacet
  facet normal 0.000000 0.000000 1.000000
    outer loop
      vertex 20.000000 0.000000 8.000000
      vertex 12.400000 -7.600000 8.000000
      vertex 20.000000 -56.000000 8.000000
    endloop
  endfacet
  facet normal 0.000000 -0.000000 1.000000
    outer loop
      vertex -3.600000 -40.400000 8.000000
      vertex -3.600000 -48.400000 8.000000
      vertex 3.600000 -48.400000 8.000000
    endloop
  endfacet
  facet normal 0.000000 -0.000000 1.000000
    outer loop
      vertex -3.600000 -48.400000 8.000000
      vertex -20.000000 -56.000000 8.000000
      vertex 3.600000 -48.400000 8.000000
    endloop
  endfacet
  facet normal 0.000000 -0.000000 1.000000
    outer loop
      vertex -12.400000 -48.400000 8.000000
      vertex -20.000000 -56.000000 8.000000
      vertex -3.600000 -48.400000 8.000000
    endloop
  endfacet
  facet normal 0.000000 -0.000000 1.000000
    outer loop
      vertex -20.000000 -24.400000 8.000000
      vertex -20.000000 -56.000000 8.000000
      vertex -12.400000 -48.400000 8.000000
    endloop
  endfacet
  facet normal 0.000000 0.000000 1.000000
    outer loop
      vertex -3.600000 -7.600000 8.000000
      vertex 3.600000 -7.600000 8.000000
      vertex 20.000000 0.000000 8.000000
    endloop
  endfacet
  facet normal 0.000000 0.000000 1.000000
    outer loop
      vertex -12.400000 -48.400000 8.000000
      vertex -12.400000 -24.400000 8.000000
      vertex -20.000000 -24.400000 8.000000
    endloop
  endfacet
  facet normal -0.000000 0.000000 1.000000
    outer loop
      vertex -12.400000 -15.600000 8.000000
      vertex -12.400000 -7.600000 8.000000
      vertex -20.000000 -15.600000 8.000000
    endloop
  endfacet
  facet normal 1.000000 0.000000 -0.000000
    outer loop
      vertex 20.000000 -56.000000 8.000000
      vertex 20.000000 -56.000000 0.000000
      vertex 20.000000 0.000000 0.000000
    endloop
  endfacet
  facet normal 1.000000 0.000000 0.000000
    outer loop
      vertex 20.000000 0.000000 8.000000
      vertex 20.000000 -56.000000 8.000000
      vertex 20.000000 0.000000 0.000000
    endloop
  endfacet
  facet normal 0.000000 1.000000 0.000000
    outer loop
      vertex -20.000000 0.000000 0.000000
      vertex -20.000000 0.000000 8.000000
      vertex 20.000000 0.000000 0.000000
    endloop
  endfacet
  facet normal 0.000000 1.000000 0.000000
    outer loop
      vertex 20.000000 0.000000 0.000000
      vertex -20.000000 0.000000 8.000000
      vertex 20.000000 0.000000 8.000000
    endloop
  endfacet
  facet normal -1.000000 -0.000000 -0.000000
    outer loop
      vertex -20.000000 -15.600000 0.000000
      vertex -20.000000 -15.600000 8.000000
      vertex -20.000000 0.000000 0.000000
    endloop
  endfacet
  facet normal -1.000000 0.000000 0.000000
    outer loop
      vertex -20.000000 0.000000 0.000000
      vertex -20.000000 -15.600000 8.000000
      vertex -20.000000 0.000000 8.000000
    endloop
  endfacet
  facet normal 0.000000 -1.000000 0.000000
    outer loop
      vertex -12.400000 -15.600000 0.000000
      vertex -12.400000 -15.600000 8.000000
      vertex -20.000000 -15.600000 8.000000
    endloop
  endfacet
  facet normal -0.000000 -1.000000 -0.000000
    outer loop
      vertex -20.000000 -15.600000 0.000000
      vertex -12.400000 -15.600000 0.000000
      vertex -20.000000 -15.600000 8.000000
    endloop
  endfacet
  facet normal 1.000000 0.000000 0.000000
    outer loop
      vertex -12.400000 -7.600000 0.000000
      vertex -12.400000 -7.600000 8.000000
      vertex -12.400000 -15.600000 8.000000
    endloop
  endfacet
  facet normal 1.000000 0.000000 0.000000
    outer loop
      vertex -12.400000 -15.600000 0.000000
      vertex -12.400000 -7.600000 0.000000
      vertex -12.400000 -15.600000 8.000000
    endloop
  endfacet
  facet normal 0.000000 -1.000000 0.000000
    outer loop
      vertex -3.600000 -7.600000 0.000000
      vertex -3.600000 -7.600000 8.000000
      vertex -12.400000 -7.600000 8.000000
    endloop
  endfacet
  facet normal -0.000000 -1.000000 -0.000000
    outer loop
      vertex -12.400000 -7.600000 0.000000
      vertex -3.600000 -7.600000 0.000000
      vertex -12.400000 -7.600000 8.000000
    endloop
  endfacet
  facet normal -1.000000 0.000000 0.000000
    outer loop
      vertex -3.600000 -7.600000 8.000000
      vertex -3.600000 -7.600000 0.000000
      vertex -3.600000 -15.600000 8.000000
    endloop
  endfacet
  facet normal -1.000000 0.000000 0.000000
    outer loop
      vertex -3.600000 -15.600000 8.000000
      vertex -3.600000 -7.600000 0.000000
      vertex -3.600000 -15.600000 0.000000
    endloop
  endfacet
  facet normal 0.000000 -1.000000 0.000000
    outer loop
      vertex 3.600000 -15.600000 0.000000
      vertex 3.600000 -15.600000 8.000000
      vertex -3.600000 -15.600000 8.000000
    endloop
  endfacet
  facet normal -0.000000 -1.000000 -0.000000
    outer loop
      vertex -3.600000 -15.600000 0.000000
      vertex 3.600000 -15.600000 0.000000
      vertex -3.600000 -15.600000 8.000000
    endloop
  endfacet
  facet normal 1.000000 0.000000 0.000000
    outer loop
      vertex 3.600000 -7.600000 0.000000
      vertex 3.600000 -7.600000 8.000000
      vertex 3.600000 -15.600000 8.000000
    endloop
  endfacet
  facet normal 1.000000 0.000000 0.000000
    outer loop
      vertex 3.600000 -15.600000 0.000000
      vertex 3.600000 -7.600000 0.000000
      vertex 3.600000 -15.600000 8.000000
    endloop
  endfacet
  facet normal 0.000000 -1.000000 0.000000
    outer loop
      vertex 12.400000 -7.600000 0.000000
      vertex 12.400000 -7.600000 8.000000
      vertex 3.600000 -7.600000 8.000000
    endloop
  endfacet
  facet normal -0.000000 -1.000000 -0.000000
    outer loop
      vertex 3.600000 -7.600000 0.000000
      vertex 12.400000 -7.600000 0.000000
      vertex 3.600000 -7.600000 8.000000
    endloop
  endfacet
  facet normal -1.000000 0.000000 0.000000
    outer loop
      vertex 12.400000 -7.600000 8.000000
      vertex 12.400000 -7.600000 0.000000
      vertex 12.400000 -48.400000 8.000000
    endloop
  endfacet
  facet normal -1.000000 0.000000 0.000000
    outer loop
      vertex 12.400000 -48.400000 8.000000
      vertex 12.400000 -7.600000 0.000000
      vertex 12.400000 -48.400000 0.000000
    endloop
  endfacet
  facet normal 0.000000 1.000000 0.000000
    outer loop
      vertex 12.400000 -48.400000 8.000000
      vertex 12.400000 -48.400000 0.000000
      vertex 3.600000 -48.400000 8.000000
    endloop
  endfacet
  facet normal 0.000000 1.000000 -0.000000
    outer loop
      vertex 3.600000 -48.400000 8.000000
      vertex 12.400000 -48.400000 0.000000
      vertex 3.600000 -48.400000 0.000000
    endloop
  endfacet
  facet normal 1.000000 0.000000 0.000000
    outer loop
      vertex 3.600000 -40.400000 0.000000
      vertex 3.600000 -40.400000 8.000000
      vertex 3.600000 -48.400000 8.000000
    endloop
  endfacet
  facet normal 1.000000 0.000000 0.000000
    outer loop
      vertex 3.600000 -48.400000 0.000000
      vertex 3.600000 -40.400000 0.000000
      vertex 3.600000 -48.400000 8.000000
    endloop
  endfacet
  facet normal 0.000000 1.000000 0.000000
    outer loop
      vertex 3.600000 -40.400000 8.000000
      vertex 3.600000 -40.400000 0.000000
      vertex -3.600000 -40.400000 8.000000
    endloop
  endfacet
  facet normal 0.000000 1.000000 -0.000000
    outer loop
      vertex -3.600000 -40.400000 8.000000
      vertex 3.600000 -40.400000 0.000000
      vertex -3.600000 -40.400000 0.000000
    endloop
  endfacet
  facet normal -1.000000 0.000000 0.000000
    outer loop
      vertex -3.600000 -40.400000 8.000000
      vertex -3.600000 -40.400000 0.000000
      vertex -3.600000 -48.400000 8.000000
    endloop
  endfacet
  facet normal -1.000000 0.000000 0.000000
    outer loop
      vertex -3.600000 -48.400000 8.000000
      vertex -3.600000 -40.400000 0.000000
      vertex -3.600000 -48.400000 0.000000
    endloop
  endfacet
  facet normal 0.000000 1.000000 0.000000
    outer loop
      vertex -3.600000 -48.400000 8.000000
      vertex -3.600000 -48.400000 0.000000
      vertex -12.400000 -48.400000 8.000000
    endloop
  endfacet
  facet normal 0.000000 1.000000 -0.000000
    outer loop
      vertex -12.400000 -48.400000 8.000000
      vertex -3.600000 -48.400000 0.000000
      vertex -12.400000 -48.400000 0.000000
    endloop
  endfacet
  facet normal 1.000000 0.000000 0.000000
    outer loop
      vertex -12.400000 -24.400000 0.000000
      vertex -12.400000 -24.400000 8.000000
      vertex -12.400000 -48.400000 8.000000
    endloop
  endfacet
  facet normal 1.000000 0.000000 0.000000
    outer loop
      vertex -12.400000 -48.400000 0.000000
      vertex -12.400000 -24.400000 0.000000
      vertex -12.400000 -48.400000 8.000000
    endloop
  endfacet
  facet normal -1.000000 -0.000000 -0.000000
    outer loop
      vertex 25.000000 -56.000000 0.000000
      vertex 25.000000 -56.000000 8.000000
      vertex 25.000000 -24.400000 0.000000
    endloop
  endfacet
  facet normal -1.000000 0.000000 0.000000
    outer loop
      vertex 25.000000 -24.400000 0.000000
      vertex 25.000000 -56.000000 8.000000
      vertex 25.000000 -24.400000 8.000000
    endloop
  endfacet
  facet normal 0.000000 -1.000000 0.000000
    outer loop
      vertex 25.000000 -56.000000 8.000000
      vertex 25.000000 -56.000000 0.000000
      vertex 65.000000 -56.000000 0.000000
    endloop
  endfacet
  facet normal 0.000000 -1.000000 0.000000
    outer loop
      vertex 65.000000 -56.000000 8.000000
      vertex 25.000000 -56.000000 8.000000
      vertex 65.000000 -56.000000 0.000000
    endloop
  endfacet
  facet normal 0.000000 0.000000 -1.000000
    outer loop
      vertex 41.400000 -7.600000 0.000000
      vertex 48.600000 -7.600000 0.000000
      vertex 41.400000 -15.600000 0.000000
    endloop
  endfacet
  facet normal 0.000000 -0.000000 -1.000000
    outer loop
      vertex 25.000000 -56.000000 0.000000
      vertex 25.000000 -24.400000 0.000000
      vertex 32.600000 -32.400000 0.000000
    endloop
  endfacet
  facet normal 0.000000 0.000000 -1.000000
    outer loop
      vertex 32.600000 -48.400000 0.000000
      vertex 25.000000 -56.000000 0.000000
      vertex 32.600000 -39.600000 0.000000
    endloop
  endfacet
  facet normal 0.000000 0.000000 -1.000000
    outer loop
      vertex 40.900000 -39.600000 0.000000
      vertex 32.600000 -32.400000 0.000000
      vertex 40.900000 -32.400000 0.000000
    endloop
  endfacet
  facet normal -0.000000 -0.000000 -1.000000
    outer loop
      vertex 32.600000 -39.600000 0.000000
      vertex 32.600000 -32.400000 0.000000
      vertex 40.900000 -39.600000 0.000000
    endloop
  endfacet
  facet normal 0.000000 0.000000 -1.000000
    outer loop
      vertex 48.600000 -15.600000 0.000000
      vertex 41.400000 -15.600000 0.000000
      vertex 48.600000 -7.600000 0.000000
    endloop
  endfacet
  facet normal 0.000000 0.000000 -1.000000
    outer loop
      vertex 25.000000 -56.000000 0.000000
      vertex 32.600000 -32.400000 0.000000
      vertex 32.600000 -39.600000 0.000000
    endloop
  endfacet
  facet normal -0.000000 0.000000 -1.000000
    outer loop
      vertex 25.000000 -56.000000 0.000000
      vertex 32.600000 -48.400000 0.000000
      vertex 65.000000 -56.000000 0.000000
    endloop
  endfacet
  facet normal 0.000000 0.000000 -1.000000
    outer loop
      vertex 32.600000 -48.400000 0.000000
      vertex 41.400000 -48.400000 0.000000
      vertex 65.000000 -56.000000 0.000000
    endloop
  endfacet
  facet normal 0.000000 0.000000 -1.000000
    outer loop
      vertex 57.400000 -48.400000 0.000000
      vertex 65.000000 -56.000000 0.000000
      vertex 48.600000 -48.400000 0.000000
    endloop
  endfacet
  facet normal 0.000000 0.000000 -1.000000
    outer loop
      vertex 48.600000 -48.400000 0.000000
      vertex 41.400000 -40.400000 0.000000
      vertex 48.600000 -40.400000 0.000000
    endloop
  endfacet
  facet normal -0.000000 -0.000000 -1.000000
    outer loop
      vertex 41.400000 -48.400000 0.000000
      vertex 41.400000 -40.400000 0.000000
      vertex 48.600000 -48.400000 0.000000
    endloop
  endfacet
  facet normal 0.000000 0.000000 -1.000000
    outer loop
      vertex 41.400000 -48.400000 0.000000
      vertex 48.600000 -48.400000 0.000000
      vertex 65.000000 -56.000000 0.000000
    endloop
  endfacet
  facet normal 0.000000 0.000000 -1.000000
    outer loop
      vertex 65.000000 -56.000000 0.000000
      vertex 57.400000 -48.400000 0.000000
      vertex 57.400000 -7.600000 0.000000
    endloop
  endfacet
  facet normal -0.000000 0.000000 -1.000000
    outer loop
      vertex 25.000000 -15.600000 0.000000
      vertex 32.600000 -7.600000 0.000000
      vertex 32.600000 -15.600000 0.000000
    endloop
  endfacet
  facet normal -0.000000 -0.000000 -0.000000
    outer loop
      vertex 48.600000 -7.600000 0.000000
      vertex 41.400000 -7.600000 0.000000
      vertex 57.400000 -7.600000 0.000000
    endloop
  endfacet
  facet normal -0.000000 -0.000000 -1.000000
    outer loop
      vertex 41.400000 -7.600000 0.000000
      vertex 25.000000 0.000000 0.000000
      vertex 57.400000 -7.600000 0.000000
    endloop
  endfacet
  facet normal 0.000000 0.000000 -1.000000
    outer loop
      vertex 32.600000 -7.600000 0.000000
      vertex 25.000000 -15.600000 0.000000
      vertex 25.000000 0.000000 0.000000
    endloop
  endfacet
  facet normal -0.000000 -0.000000 -1.000000
    outer loop
      vertex 32.600000 -7.600000 0.000000
      vertex 25.000000 0.000000 0.000000
      vertex 41.400000 -7.600000 0.000000
    endloop
  endfacet
  facet normal 0.000000 -0.000000 -1.000000
    outer loop
      vertex 57.400000 -7.600000 0.000000
      vertex 25.000000 0.000000 0.000000
      vertex 65.000000 0.000000 0.000000
    endloop
  endfacet
  facet normal -0.000000 0.000000 -1.000000
    outer loop
      vertex 57.400000 -7.600000 0.000000
      vertex 65.000000 0.000000 0.000000
      vertex 65.000000 -56.000000 0.000000
    endloop
  endfacet
  facet normal 0.000000 0.000000 -1.000000
    outer loop
      vertex 32.600000 -32.400000 0.000000
      vertex 25.000000 -24.400000 0.000000
      vertex 32.600000 -24.400000 0.000000
    endloop
  endfacet
  facet normal 0.000000 1.000000 0.000000
    outer loop
      vertex 32.600000 -24.400000 8.000000
      vertex 32.600000 -24.400000 0.000000
      vertex 25.000000 -24.400000 8.000000
    endloop
  endfacet
  facet normal 0.000000 1.000000 -0.000000
    outer loop
      vertex 25.000000 -24.400000 8.000000
      vertex 32.600000 -24.400000 0.000000
      vertex 25.000000 -24.400000 0.000000
    endloop
  endfacet
  facet normal 0.000000 -0.000000 1.000000
    outer loop
      vertex 48.600000 -48.400000 8.000000
      vertex 25.000000 -56.000000 8.000000
      vertex 65.000000 -56.000000 8.000000
    endloop
  endfacet
  facet normal -0.000000 0.000000 1.000000
    outer loop
      vertex 48.600000 -15.600000 8.000000
      vertex 48.600000 -7.600000 8.000000
      vertex 41.400000 -15.600000 8.000000
    endloop
  endfacet
  facet normal 0.000000 -0.000000 1.000000
    outer loop
      vertex 57.400000 -7.600000 8.000000
      vertex 57.400000 -48.400000 8.000000
      vertex 65.000000 -56.000000 8.000000
    endloop
  endfacet
  facet normal 0.000000 0.000000 1.000000
    outer loop
      vertex 25.000000 0.000000 8.000000
      vertex 32.600000 -7.600000 8.000000
      vertex 65.000000 0.000000 8.000000
    endloop
  endfacet
  facet normal 0.000000 -0.000000 1.000000
    outer loop
      vertex 25.000000 0.000000 8.000000
      vertex 25.000000 -15.600000 8.000000
      vertex 32.600000 -7.600000 8.000000
    endloop
  endfacet
  facet normal 0.000000 0.000000 1.000000
    outer loop
      vertex 32.600000 -7.600000 8.000000
      vertex 41.400000 -7.600000 8.000000
      vertex 65.000000 0.000000 8.000000
    endloop
  endfacet
  facet normal 0.000000 0.000000 1.000000
    outer loop
      vertex 48.600000 -40.400000 8.000000
      vertex 41.400000 -40.400000 8.000000
      vertex 48.600000 -48.400000 8.000000
    endloop
  endfacet
  facet normal 0.000000 -0.000000 1.000000
    outer loop
      vertex 41.400000 -40.400000 8.000000
      vertex 41.400000 -48.400000 8.000000
      vertex 48.600000 -48.400000 8.000000
    endloop
  endfacet
  facet normal 0.000000 0.000000 1.000000
    outer loop
      vertex 48.600000 -7.600000 8.000000
      vertex 57.400000 -7.600000 8.000000
      vertex 65.000000 0.000000 8.000000
    endloop
  endfacet
  facet normal 0.000000 0.000000 1.000000
    outer loop
      vertex 65.000000 0.000000 8.000000
      vertex 57.400000 -7.600000 8.000000
      vertex 65.000000 -56.000000 8.000000
    endloop
  endfacet
  facet normal 0.000000 0.000000 1.000000
    outer loop
      vertex 32.600000 -32.400000 8.000000
      vertex 32.600000 -24.400000 8.000000
      vertex 25.000000 -24.400000 8.000000
    endloop
  endfacet
  facet normal 0.000000 -0.000000 1.000000
    outer loop
      vertex 41.400000 -48.400000 8.000000
      vertex 25.000000 -56.000000 8.000000
      vertex 48.600000 -48.400000 8.000000
    endloop
  endfacet
  facet normal 0.000000 0.000000 1.000000
    outer loop
      vertex 40.900000 -32.400000 8.000000
      vertex 32.600000 -32.400000 8.000000
      vertex 40.900000 -39.600000 8.000000
    endloop
  endfacet
  facet normal 0.000000 0.000000 1.000000
    outer loop
      vertex 32.600000 -39.600000 8.000000
      vertex 32.600000 -32.400000 8.000000
      vertex 25.000000 -24.400000 8.000000
    endloop
  endfacet
  facet normal 0.000000 -0.000000 1.000000
    outer loop
      vertex 32.600000 -48.400000 8.000000
      vertex 25.000000 -56.000000 8.000000
      vertex 41.400000 -48.400000 8.000000
    endloop
  endfacet
  facet normal 0.000000 -0.000000 1.000000
    outer loop
      vertex 25.000000 -24.400000 8.000000
      vertex 25.000000 -56.000000 8.000000
      vertex 32.600000 -48.400000 8.000000
    endloop
  endfacet
  facet normal 0.000000 0.000000 1.000000
    outer loop
      vertex 25.000000 -24.400000 8.000000
      vertex 32.600000 -48.400000 8.000000
      vertex 32.600000 -39.600000 8.000000
    endloop
  endfacet
  facet normal 0.000000 0.000000 1.000000
    outer loop
      vertex 41.400000 -7.600000 8.000000
      vertex 48.600000 -7.600000 8.000000
      vertex 65.000000 0.000000 8.000000
    endloop
  endfacet
  facet normal 0.000000 0.000000 1.000000
    outer loop
      vertex 32.600000 -39.600000 8.000000
      vertex 40.900000 -39.600000 8.000000
      vertex 32.600000 -32.400000 8.000000
    endloop
  endfacet
  facet normal 0.000000 -0.000000 1.000000
    outer loop
      vertex 57.400000 -48.400000 8.000000
      vertex 48.600000 -48.400000 8.000000
      vertex 65.000000 -56.000000 8.000000
    endloop
  endfacet
  facet normal -0.000000 0.000000 1.000000
    outer loop
      vertex 32.600000 -15.600000 8.000000
      vertex 32.600000 -7.600000 8.000000
      vertex 25.000000 -15.600000 8.000000
    endloop
  endfacet
  facet normal 0.000000 -0.000000 1.000000
    outer loop
      vertex 41.400000 -7.600000 8.000000
      vertex 41.400000 -15.600000 8.000000
      vertex 48.600000 -7.600000 8.000000
    endloop
  endfacet
  facet normal 1.000000 0.000000 -0.000000
    outer loop
      vertex 65.000000 -56.000000 8.000000
      vertex 65.000000 -56.000000 0.000000
      vertex 65.000000 0.000000 0.000000
    endloop
  endfacet
  facet normal 1.000000 0.000000 0.000000
    outer loop
      vertex 65.000000 0.000000 8.000000
      vertex 65.000000 -56.000000 8.000000
      vertex 65.000000 0.000000 0.000000
    endloop
  endfacet
  facet normal 0.000000 1.000000 0.000000
    outer loop
      vertex 25.000000 0.000000 0.000000
      vertex 25.000000 0.000000 8.000000
      vertex 65.000000 0.000000 0.000000
    endloop
  endfacet
  facet normal 0.000000 1.000000 0.000000
    outer loop
      vertex 65.000000 0.000000 0.000000
      vertex 25.000000 0.000000 8.000000
      vertex 65.000000 0.000000 8.000000
    endloop
  endfacet
  facet normal -1.000000 -0.000000 -0.000000
    outer loop
      vertex 25.000000 -15.600000 0.000000
      vertex 25.000000 -15.600000 8.000000
      vertex 25.000000 0.000000 0.000000
    endloop
  endfacet
  facet normal -1.000000 0.000000 0.000000
    outer loop
      vertex 25.000000 0.000000 0.000000
      vertex 25.000000 -15.600000 8.000000
      vertex 25.000000 0.000000 8.000000
    endloop
  endfacet
  facet normal 0.000000 -1.000000 0.000000
    outer loop
      vertex 32.600000 -15.600000 0.000000
      vertex 32.600000 -15.600000 8.000000
      vertex 25.000000 -15.600000 8.000000
    endloop
  endfacet
  facet normal -0.000000 -1.000000 -0.000000
    outer loop
      vertex 25.000000 -15.600000 0.000000
      vertex 32.600000 -15.600000 0.000000
      vertex 25.000000 -15.600000 8.000000
    endloop
  endfacet
  facet normal 1.000000 0.000000 0.000000
    outer loop
      vertex 32.600000 -7.600000 0.000000
      vertex 32.600000 -7.600000 8.000000
      vertex 32.600000 -15.600000 8.000000
    endloop
  endfacet
  facet normal 1.000000 0.000000 0.000000
    outer loop
      vertex 32.600000 -15.600000 0.000000
      vertex 32.600000 -7.600000 0.000000
      vertex 32.600000 -15.600000 8.000000
    endloop
  endfacet
  facet normal 0.000000 -1.000000 0.000000
    outer loop
      vertex 41.400000 -7.600000 0.000000
      vertex 41.400000 -7.600000 8.000000
      vertex 32.600000 -7.600000 8.000000
    endloop
  endfacet
  facet normal -0.000000 -1.000000 -0.000000
    outer loop
      vertex 32.600000 -7.600000 0.000000
      vertex 41.400000 -7.600000 0.000000
      vertex 32.600000 -7.600000 8.000000
    endloop
  endfacet
  facet normal -1.000000 0.000000 0.000000
    outer loop
      vertex 41.400000 -7.600000 8.000000
      vertex 41.400000 -7.600000 0.000000
      vertex 41.400000 -15.600000 8.000000
    endloop
  endfacet
  facet normal -1.000000 0.000000 0.000000
    outer loop
      vertex 41.400000 -15.600000 8.000000
      vertex 41.400000 -7.600000 0.000000
      vertex 41.400000 -15.600000 0.000000
    endloop
  endfacet
  facet normal 0.000000 -1.000000 0.000000
    outer loop
      vertex 48.600000 -15.600000 0.000000
      vertex 48.600000 -15.600000 8.000000
      vertex 41.400000 -15.600000 8.000000
    endloop
  endfacet
  facet normal -0.000000 -1.000000 -0.000000
    outer loop
      vertex 41.400000 -15.600000 0.000000
      vertex 48.600000 -15.600000 0.000000
      vertex 41.400000 -15.600000 8.000000
    endloop
  endfacet
  facet normal 1.000000 0.000000 0.000000
    outer loop
      vertex 48.600000 -7.600000 0.000000
      vertex 48.600000 -7.600000 8.000000
      vertex 48.600000 -15.600000 8.000000
    endloop
  endfacet
  facet normal 1.000000 0.000000 0.000000
    outer loop
      vertex 48.600000 -15.600000 0.000000
      vertex 48.600000 -7.600000 0.000000
      vertex 48.600000 -15.600000 8.000000
    endloop
  endfacet
  facet normal 0.000000 -1.000000 0.000000
    outer loop
      vertex 57.400000 -7.600000 0.000000
      vertex 57.400000 -7.600000 8.000000
      vertex 48.600000 -7.600000 8.000000
    endloop
  endfacet
  facet normal -0.000000 -1.000000 -0.000000
    outer loop
      vertex 48.600000 -7.600000 0.000000
      vertex 57.400000 -7.600000 0.000000
      vertex 48.600000 -7.600000 8.000000
    endloop
  endfacet
  facet normal -1.000000 0.000000 0.000000
    outer loop
      vertex 57.400000 -7.600000 8.000000
      vertex 57.400000 -7.600000 0.000000
      vertex 57.400000 -48.400000 8.000000
    endloop
  endfacet
  facet normal -1.000000 0.000000 0.000000
    outer loop
      vertex 57.400000 -48.400000 8.000000
      vertex 57.400000 -7.600000 0.000000
      vertex 57.400000 -48.400000 0.000000
    endloop
  endfacet
  facet normal 0.000000 1.000000 0.000000
    outer loop
      vertex 57.400000 -48.400000 8.000000
      vertex 57.400000 -48.400000 0.000000
      vertex 48.600000 -48.400000 8.000000
    endloop
  endfacet
  facet normal 0.000000 1.000000 -0.000000
    outer loop
      vertex 48.600000 -48.400000 8.000000
      vertex 57.400000 -48.400000 0.000000
      vertex 48.600000 -48.400000 0.000000
    endloop
  endfacet
  facet normal 1.000000 0.000000 0.000000
    outer loop
      vertex 48.600000 -40.400000 0.000000
      vertex 48.600000 -40.400000 8.000000
      vertex 48.600000 -48.400000 8.000000
    endloop
  endfacet
  facet normal 1.000000 0.000000 0.000000
    outer loop
      vertex 48.600000 -48.400000 0.000000
      vertex 48.600000 -40.400000 0.000000
      vertex 48.600000 -48.400000 8.000000
    endloop
  endfacet
  facet normal 0.000000 1.000000 0.000000
    outer loop
      vertex 48.600000 -40.400000 8.000000
      vertex 48.600000 -40.400000 0.000000
      vertex 41.400000 -40.400000 8.000000
    endloop
  endfacet
  facet normal 0.000000 1.000000 -0.000000
    outer loop
      vertex 41.400000 -40.400000 8.000000
      vertex 48.600000 -40.400000 0.000000
      vertex 41.400000 -40.400000 0.000000
    endloop
  endfacet
  facet normal -1.000000 0.000000 0.000000
    outer loop
      vertex 41.400000 -40.400000 8.000000
      vertex 41.400000 -40.400000 0.000000
      vertex 41.400000 -48.400000 8.000000
    endloop
  endfacet
  facet normal -1.000000 0.000000 0.000000
    outer loop
      vertex 41.400000 -48.400000 8.000000
      vertex 41.400000 -40.400000 0.000000
      vertex 41.400000 -48.400000 0.000000
    endloop
  endfacet
  facet normal 0.000000 1.000000 0.000000
    outer loop
      vertex 41.400000 -48.400000 8.000000
      vertex 41.400000 -48.400000 0.000000
      vertex 32.600000 -48.400000 8.000000
    endloop
  endfacet
  facet normal 0.000000 1.000000 -0.000000
    outer loop
      vertex 32.600000 -48.400000 8.000000
      vertex 41.400000 -48.400000 0.000000
      vertex 32.600000 -48.400000 0.000000
    endloop
  endfacet
  facet normal 1.000000 0.000000 0.000000
    outer loop
      vertex 32.600000 -39.600000 0.000000
      vertex 32.600000 -39.600000 8.000000
      vertex 32.600000 -48.400000 8.000000
    endloop
  endfacet
  facet normal 1.000000 0.000000 0.000000
    outer loop
      vertex 32.600000 -48.400000 0.000000
      vertex 32.600000 -39.600000 0.000000
      vertex 32.600000 -48.400000 8.000000
    endloop
  endfacet
  facet normal 0.000000 -1.000000 0.000000
    outer loop
      vertex 40.900000 -39.600000 0.000000
      vertex 40.900000 -39.600000 8.000000
      vertex 32.600000 -39.600000 8.000000
    endloop
  endfacet
  facet normal -0.000000 -1.000000 -0.000000
    outer loop
      vertex 32.600000 -39.600000 0.000000
      vertex 40.900000 -39.600000 0.000000
      vertex 32.600000 -39.600000 8.000000
    endloop
  endfacet
  facet normal 1.000000 0.000000 0.000000
    outer loop
      vertex 40.900000 -32.400000 0.000000
      vertex 40.900000 -32.400000 8.000000
      vertex 40.900000 -39.600000 8.000000
    endloop
  endfacet
  facet normal 1.000000 0.000000 0.000000
    outer loop
      vertex 40.900000 -39.600000 0.000000
      vertex 40.900000 -32.400000 0.000000
      vertex 40.900000 -39.600000 8.000000
    endloop
  endfacet
  facet normal 0.000000 1.000000 0.000000
    outer loop
      vertex 40.900000 -32.400000 8.000000
      vertex 40.900000 -32.400000 0.000000
      vertex 32.600000 -32.400000 8.000000
    endloop
  endfacet
  facet normal 0.000000 1.000000 -0.000000
    outer loop
      vertex 32.600000 -32.400000 8.000000
      vertex 40.900000 -32.400000 0.000000
      vertex 32.600000 -32.400000 0.000000
    endloop
  endfacet
  facet normal 1.000000 0.000000 0.000000
    outer loop
      vertex 32.600000 -24.400000 0.000000
      vertex 32.600000 -24.400000 8.000000
      vertex 32.600000 -32.400000 8.000000
    endloop
  endfacet
  facet normal 1.000000 0.000000 0.000000
    outer loop
      vertex 32.600000 -32.400000 0.000000
      vertex 32.600000 -24.400000 0.000000
      vertex 32.600000 -32.400000 8.000000
    endloop
  endfacet
endsolid OpenSCAD_Model
